<svg width="1095" height="467" viewBox="0 0 1095 467" fill="none" xmlns="http://www.w3.org/2000/svg">
    <path
    d="M187.766 467L221.366 323.5H0.865626L2.96563 313.7C5.29896 311.367 7.86563 308.567 10.6656 305.3C13.4656 302.033 17.6656 297.367 23.2656 291.3L290.666 4.99998H307.466L234.666 313.7H325.666L323.566 323.5H232.566L198.966 467H187.766ZM15.5656 313.7H223.466L293.466 16.9L38.6656 289.9C33.5323 295.5 29.099 300.167 25.3656 303.9C22.099 307.167 18.8323 310.433 15.5656 313.7ZM542.42 471.2C508.82 471.2 480.82 463.5 458.42 448.1C436.02 432.7 419.22 411.7 408.02 385.1C397.286 358.5 391.92 328.633 391.92 295.5C391.92 277.767 392.853 260.267 394.72 243C396.586 225.733 399.386 208.933 403.12 192.6C409.653 166 418.52 141.033 429.72 117.7C440.92 94.3667 454.453 73.8333 470.32 56.1C486.653 38.3667 505.32 24.6 526.32 14.8C547.786 4.99997 571.353 0.0999613 597.02 0.0999613C629.686 0.0999613 656.753 7.79997 678.22 23.2C700.153 38.6 716.486 59.6 727.22 86.2C738.42 112.8 744.02 142.667 744.02 175.8C744.02 193.067 743.086 210.1 741.22 226.9C739.353 243.7 736.553 260.267 732.82 276.6C726.753 303.667 717.886 329.1 706.22 352.9C695.02 376.233 681.253 396.767 664.92 414.5C649.053 432.233 630.853 446.233 610.32 456.5C589.786 466.3 567.153 471.2 542.42 471.2ZM543.12 461.4C574.386 461.4 601.92 453 625.72 436.2C649.52 419.4 669.353 397 685.22 369C701.553 340.533 713.686 309.267 721.62 275.2C725.353 258.867 728.153 242.533 730.02 226.2C731.886 209.4 732.82 192.6 732.82 175.8C732.82 125.4 720.92 85.2666 697.12 55.4C673.786 25.0666 640.186 9.89996 596.32 9.89996C563.653 9.89996 535.186 18.3 510.92 35.1C486.653 51.4333 466.353 73.6 450.02 101.6C434.153 129.133 422.253 159.933 414.32 194C410.586 210.333 407.786 227.133 405.92 244.4C404.053 261.2 403.12 278.233 403.12 295.5C403.12 329.1 408.486 358.5 419.22 383.7C429.953 408.433 445.82 427.567 466.82 441.1C487.82 454.633 513.253 461.4 543.12 461.4ZM967.746 467L1001.35 323.5H780.846L782.946 313.7C785.279 311.367 787.846 308.567 790.646 305.3C793.446 302.033 797.646 297.367 803.246 291.3L1070.65 4.99998H1087.45L1014.65 313.7H1105.65L1103.55 323.5H1012.55L978.946 467H967.746ZM795.546 313.7H1003.45L1073.45 16.9L818.646 289.9C813.513 295.5 809.079 300.167 805.346 303.9C802.079 307.167 798.813 310.433 795.546 313.7Z"
    fill="white"
    />
</svg>