 <svg
    id="floating-pointer"
    width="180"
    height="180"
    viewBox="0 0 180 180"
    fill="none"
    xmlns="http://www.w3.org/2000/svg">
    <path
    d="M179.5 90C179.5 139.429 139.429 179.5 90 179.5C40.5705 179.5 0.5 139.429 0.5 90C0.5 40.5705 40.5705 0.5 90 0.5C139.429 0.5 179.5 40.5705 179.5 90Z"
    stroke="white"
    />
    <path
    fill-rule="evenodd"
    clip-rule="evenodd"
    d="M93.5791 66.0927L117.051 72.382C118.491 72.7679 119.346 74.2484 118.96 75.6888L112.671 99.1608C112.285 100.601 110.805 101.456 109.364 101.07C107.924 100.684 107.069 99.2035 107.455 97.7632L112.057 80.5874L55.3484 113.328L52.6484 108.652L109.357 75.9109L92.1815 71.3087C90.7411 70.9227 89.8863 69.4422 90.2723 68.0019C90.6582 66.5615 92.1387 65.7067 93.5791 66.0927Z"
    fill="white"
    />
    <path
    d="M99 153C99 157.971 94.9706 162 90 162C85.0294 162 81 157.971 81 153C81 148.029 85.0294 144 90 144C94.9706 144 99 148.029 99 153Z"
    fill="white"
    />
    <path
    d="M37.0255 55.7582C36.7284 56.2235 36.3611 56.5869 35.9235 56.8486C35.4823 57.0936 35.009 57.2328 34.5037 57.2661C33.9947 57.2828 33.4937 57.1979 33.0007 57.0112L32.8632 56.6244L35.1979 58.286L34.0258 60.1217L23.1177 53.1569L24.4448 51.0785L29.9065 54.5657L29.4619 54.5595C28.9989 54.036 28.7255 53.4273 28.6419 52.7332C28.5583 52.0391 28.736 51.3482 29.1752 50.6604C29.5562 50.0637 30.0584 49.6227 30.682 49.3374C31.3055 49.0521 31.9977 48.9602 32.7587 49.0617C33.5261 49.153 34.3296 49.4667 35.1691 50.0027C35.9883 50.5258 36.6009 51.1162 37.0067 51.774C37.4189 52.4216 37.6236 53.0933 37.6207 53.7891C37.6243 54.4748 37.4258 55.1312 37.0255 55.7582ZM35.0353 55.3632C35.3905 54.8069 35.471 54.246 35.2767 53.6806C35.0788 53.0987 34.5955 52.5623 33.8268 52.0715C33.0581 51.5807 32.3765 51.3661 31.7818 51.4278C31.1771 51.483 30.6971 51.7888 30.3419 52.3451C30.1094 52.7092 30.0053 53.0841 30.0296 53.4697C30.0539 53.8554 30.1946 54.2371 30.4517 54.6149C30.7153 54.9825 31.0898 55.3213 31.5753 55.6313C32.0709 55.9477 32.5409 56.1481 32.9853 56.2325C33.426 56.3004 33.8214 56.261 34.1713 56.1142C34.5278 55.9574 34.8158 55.707 35.0353 55.3632Z"
    fill="white"
    />
    <path
    d="M43.4851 39.1257C43.1334 38.7481 42.7496 38.5563 42.3338 38.55C41.9267 38.5356 41.5476 38.692 41.1964 39.0192C40.8715 39.3218 40.6639 39.6711 40.5735 40.0669C40.483 40.4628 40.5607 40.907 40.8064 41.3997L38.8238 42.3611C38.4332 41.6426 38.3246 40.8746 38.4978 40.0571C38.6799 39.2315 39.1968 38.4219 40.0485 37.6285C40.628 37.0887 41.2187 36.7105 41.8207 36.4941C42.4146 36.2689 42.9977 36.2259 43.5701 36.365C44.1513 36.496 44.6955 36.8336 45.2027 37.378L47.6934 40.0516C48.0042 40.3853 48.3176 40.4049 48.6337 40.1104C48.783 39.9713 48.903 39.8185 48.9938 39.6519L49.9314 40.8696C49.8094 41.1964 49.5772 41.5193 49.2348 41.8383C48.9275 42.1246 48.6018 42.3295 48.2578 42.4532C47.9138 42.5769 47.5734 42.5988 47.2366 42.5189C46.8917 42.4303 46.5679 42.2236 46.2652 41.8987L46.2161 41.846L46.4831 41.4989C46.7413 41.8816 46.8623 42.3019 46.846 42.7598C46.8216 43.209 46.6955 43.6545 46.4676 44.0964C46.2484 44.5302 45.9589 44.9147 45.5989 45.2501C45.1511 45.6673 44.7034 45.9613 44.2558 46.1323C43.8001 46.2944 43.3617 46.3256 42.9407 46.2258C42.5197 46.126 42.1293 45.8829 41.7694 45.4966C41.3113 45.0049 41.0972 44.4581 41.127 43.8564C41.1486 43.2458 41.4004 42.6094 41.8823 41.9473L43.8921 39.1401L44.9219 40.2719L43.6359 42.0603C43.3946 42.3999 43.244 42.6959 43.1842 42.9485C43.1249 43.1842 43.2016 43.4161 43.4142 43.6444C43.6187 43.8639 43.8532 43.9571 44.1175 43.9241C44.3907 43.8828 44.6414 43.7558 44.8697 43.5431C45.0541 43.3714 45.2136 43.1817 45.3483 42.9742C45.4831 42.7667 45.5757 42.5493 45.6262 42.3218C45.6767 42.0944 45.6637 41.8604 45.5873 41.62C45.511 41.3795 45.3623 41.1408 45.1415 40.9037L43.4851 39.1257Z"
    fill="white"
    />
    <path
    d="M54.6424 26.9413C55.346 26.5522 55.9974 26.3292 56.5966 26.2721C57.2005 26.1987 57.7482 26.2592 58.2397 26.4537C58.7359 26.6319 59.166 26.9014 59.5301 27.2623L57.9145 29.1018C57.5481 28.6873 57.1722 28.4289 56.7866 28.3267C56.401 28.2246 55.9929 28.2925 55.5624 28.5306C55.1633 28.7513 54.8743 29.0345 54.6953 29.3803C54.5104 29.7156 54.449 30.1129 54.5111 30.5723C54.5673 31.0211 54.7493 31.5238 55.057 32.0804C55.3648 32.637 55.6938 33.0584 56.044 33.3447C56.4048 33.6251 56.7763 33.7762 57.1586 33.798C57.5513 33.8139 57.942 33.7145 58.3305 33.4996C58.6456 33.3254 58.8843 33.1248 59.0468 32.8979C59.2034 32.6604 59.292 32.3989 59.3124 32.1134C59.3432 31.8221 59.3036 31.5149 59.1936 31.1918L61.4952 30.7418C61.641 31.2783 61.6551 31.8121 61.5375 32.3434C61.4199 32.8746 61.1695 33.3765 60.7862 33.8489C60.403 34.3214 59.8858 34.7376 59.2347 35.0976C58.4261 35.5447 57.622 35.7768 56.8224 35.7939C56.0228 35.8109 55.2866 35.6078 54.6137 35.1846C53.9409 34.7613 53.3664 34.1191 52.8902 33.258C52.4141 32.3968 52.1756 31.5688 52.1749 30.7739C52.1742 29.979 52.3883 29.2504 52.8174 28.5881C53.2465 27.9257 53.8548 27.3768 54.6424 26.9413Z"
    fill="white"
    />
    <path
    d="M75.9454 19.1954L73.0435 24.4571L72.634 24.8083L70.7705 28.3034L70.0596 25.7731L73.232 19.9178L75.9454 19.1954ZM68.4606 17.1088L71.7903 29.6151L69.4073 30.2496L66.0777 17.7432L68.4606 17.1088ZM72.9942 22.9428L78.4697 27.8368L75.7736 28.5546L71.7297 24.7696L72.9942 22.9428Z"
    fill="white"
    />
    <path
    d="M95.1292 27.1045L97.2002 14.3293L99.6345 14.7239L98.7588 20.1254C99.1353 19.6029 99.5943 19.2458 100.136 19.054C100.68 18.8503 101.265 18.7994 101.893 18.9012C102.509 19.001 103.035 19.2078 103.47 19.5216C103.917 19.8372 104.238 20.2599 104.432 20.7897C104.639 21.3096 104.684 21.9309 104.567 22.6535L103.622 28.4814L101.188 28.0867L102.018 22.9696C102.142 22.1996 102.08 21.6485 101.83 21.3162C101.582 20.972 101.227 20.7625 100.765 20.6876C100.421 20.632 100.076 20.6611 99.7294 20.7751C99.3964 20.8792 99.0995 21.0985 98.8386 21.433C98.5915 21.7577 98.4199 22.2161 98.3239 22.8084L97.5634 27.4991L95.1292 27.1045Z"
    fill="white"
    />
    <path
    d="M118.594 23.9055C119.429 24.2718 120.085 24.7626 120.562 25.378C121.05 25.9982 121.33 26.7041 121.403 27.4957C121.486 28.2921 121.33 29.1409 120.935 30.0421C120.544 30.9323 120.025 31.622 119.378 32.1114C118.747 32.5946 118.038 32.8668 117.251 32.9279C116.476 32.9939 115.67 32.8438 114.835 32.4775C114.011 32.1161 113.355 31.6253 112.867 31.0051C112.379 30.3849 112.093 29.6766 112.01 28.8801C111.942 28.0775 112.104 27.2311 112.494 26.3409C112.89 25.4398 113.403 24.7476 114.034 24.2644C114.676 23.786 115.391 23.5163 116.177 23.4551C116.964 23.3939 117.77 23.5441 118.594 23.9055ZM117.857 25.5869C117.439 25.4038 117.038 25.3461 116.655 25.4138C116.287 25.4753 115.942 25.6647 115.62 25.9818C115.297 26.299 115.008 26.7488 114.753 27.3313C114.497 27.9138 114.362 28.431 114.347 28.8831C114.333 29.3353 114.425 29.7229 114.624 30.046C114.838 30.3629 115.155 30.613 115.572 30.7961C115.979 30.9744 116.366 31.0328 116.734 30.9713C117.117 30.9036 117.47 30.7111 117.793 30.394C118.115 30.0768 118.404 29.627 118.66 29.0445C118.915 28.4621 119.05 27.9448 119.065 27.4927C119.08 27.0406 118.98 26.656 118.765 26.3391C118.566 26.016 118.263 25.7653 117.857 25.5869Z"
    fill="white"
    />
    <path
    d="M125.026 37.3161L130.905 30.501L132.581 31.9471L131.591 33.2326C132.21 32.9742 132.813 32.8999 133.4 33.0098C133.996 33.1275 134.534 33.394 135.016 33.8094C135.507 34.2326 135.849 34.7264 136.044 35.2906C136.248 35.8626 136.258 36.4574 136.074 37.0751C136.478 36.9007 136.889 36.8193 137.306 36.831C137.724 36.8427 138.126 36.9279 138.512 37.0866C138.898 37.2453 139.246 37.4579 139.555 37.7244C140 38.1084 140.326 38.5481 140.533 39.0433C140.748 39.5464 140.809 40.0737 140.713 40.6253C140.618 41.1769 140.327 41.7344 139.841 42.2977L135.985 46.7684L134.118 45.1578L137.656 41.0551C138.087 40.5553 138.284 40.1069 138.246 39.7098C138.208 39.3127 138.017 38.9652 137.672 38.6674C137.399 38.4322 137.086 38.2809 136.732 38.2135C136.387 38.1538 136.029 38.2015 135.658 38.3565C135.303 38.5103 134.953 38.7871 134.609 39.187L131.446 42.8535L129.579 41.2428L133.118 37.1401C133.549 36.6404 133.741 36.188 133.694 35.7831C133.656 35.386 133.464 35.0385 133.119 34.7407C132.883 34.5369 132.592 34.3967 132.246 34.3201C131.909 34.2514 131.546 34.2867 131.156 34.4261C130.775 34.5733 130.393 34.8695 130.009 35.3147L126.894 38.9267L125.026 37.3161Z"
    fill="white"
    />
    <path
    d="M142.906 56.637C142.402 55.8341 142.119 55.034 142.058 54.2365C142.003 53.4493 142.168 52.708 142.553 52.0127C142.938 51.3175 143.548 50.7082 144.381 50.185C145.215 49.6619 146.028 49.3779 146.822 49.333C147.615 49.2882 148.352 49.4565 149.03 49.8381C149.715 50.2297 150.294 50.8016 150.766 51.5537C151.251 52.3261 151.505 53.0805 151.528 53.817C151.561 54.547 151.398 55.2234 151.038 55.8462C150.688 56.4625 150.173 56.9844 149.492 57.4119C149.289 57.5395 149.092 57.6556 148.903 57.7603C148.714 57.865 148.542 57.9518 148.386 58.0208L144.568 51.9381L146.016 51.0289L149.261 56.197L148.263 55.4205C148.903 55.0185 149.304 54.5617 149.464 54.0501C149.631 53.5486 149.549 53.0336 149.217 52.5051C148.974 52.1189 148.672 51.8409 148.311 51.6712C147.956 51.5116 147.55 51.4755 147.095 51.5629C146.65 51.644 146.153 51.8567 145.604 52.2013C145.066 52.5394 144.666 52.8964 144.406 53.2721C144.163 53.6517 144.044 54.038 144.05 54.431C144.062 54.8342 144.196 55.2391 144.451 55.6456C144.732 56.0928 145.045 56.3993 145.39 56.5653C145.735 56.7312 146.108 56.7947 146.508 56.7558L146.911 58.8194C146.413 58.9056 145.916 58.8704 145.421 58.7136C144.932 58.5671 144.468 58.3129 144.028 57.9513C143.605 57.5934 143.231 57.1553 142.906 56.637Z"
    fill="white"
    />
</svg>