<svg class='clutch-button' width="100" height="100" viewBox="0 0 100 100" fill="none" xmlns="http://www.w3.org/2000/svg">
<path d="M99.5 50C99.5 77.3381 77.3381 99.5 50 99.5C22.6619 99.5 0.500001 77.3381 0.500003 50C0.500006 22.6619 22.6619 0.500002 50 0.500004C77.3381 0.500007 99.5 22.6619 99.5 50Z" stroke="#004D35"/>
<path d="M33.4364 40H36.6982V60H33.4364V40Z" fill="#004D35"/>
<path d="M48.0436 53.6621C48.0436 56.7607 45.4909 57.0424 44.64 57.0424C42.6546 57.0424 42.3709 55.2114 42.3709 54.2255V46.479H39.1091V54.0846C39.1091 55.9156 39.6764 57.6058 40.8109 58.5917C41.8036 59.5776 43.08 60.0001 44.64 60.0001C45.7746 60.0001 47.1927 59.7184 48.0436 58.8734V60.0001H51.3055V46.479H48.0436V53.6621Z" fill="#004D35"/>
<path d="M57.6873 41.5493H54.4255V46.4789H52.0145V49.5775H54.4255V60H57.6873V49.5775H60.0982V46.4789H57.6873V41.5493Z" fill="#004D35"/>
<path d="M70.3091 55.9156C69.6 56.479 68.6073 56.9015 67.6146 56.9015C65.3455 56.9015 63.7855 55.2113 63.7855 52.9578C63.7855 50.7043 65.3455 49.155 67.6146 49.155C68.6073 49.155 69.6 49.4367 70.3091 50.1409L70.7346 50.5635L73.0036 48.4508L72.4364 48.0282C71.16 46.9015 69.4582 46.1973 67.6146 46.1973C63.6437 46.1973 60.6655 49.155 60.6655 53.0987C60.6655 57.0423 63.6437 60.0001 67.6146 60.0001C69.4582 60.0001 71.16 59.2959 72.4364 58.1691L73.0036 57.7466L70.7346 55.493L70.3091 55.9156Z" fill="#004D35"/>
<path d="M84.4909 47.6056C83.4982 46.6197 82.5055 46.1972 80.9455 46.1972C79.8109 46.1972 78.6764 46.4789 77.8255 47.3239V40H74.5636V60H77.8255V52.5352C77.8255 49.4366 79.9527 49.1549 80.8036 49.1549C82.7891 49.1549 82.6473 50.9859 82.6473 51.9718V59.8592H85.9091V52.1127C85.9091 50.2817 85.4836 48.5916 84.4909 47.6056Z" fill="#004D35"/>
<path d="M67.4727 55.3523C68.7259 55.3523 69.7418 54.3433 69.7418 53.0987C69.7418 51.8542 68.7259 50.8452 67.4727 50.8452C66.2195 50.8452 65.2036 51.8542 65.2036 53.0987C65.2036 54.3433 66.2195 55.3523 67.4727 55.3523Z" fill="#EF4335"/>
<path d="M28.8982 55.0703C27.7636 56.1971 26.0618 56.9013 24.2182 56.9013C20.6727 56.9013 18.12 54.0844 18.12 50.2816C18.12 46.4788 20.6727 43.6619 24.36 43.6619C26.0618 43.6619 27.7636 44.3661 29.04 45.6337L29.4655 46.0562L31.5927 43.9435L31.1673 43.521C29.3236 41.69 26.9127 40.7041 24.36 40.7041C18.9709 40.5633 15 44.7886 15 50.2816C15 55.7745 18.9709 59.9999 24.2182 59.9999C26.7709 59.9999 29.3236 59.014 31.0255 57.183L31.4509 56.7604L29.3236 54.6478L28.8982 55.0703Z" fill="#004D35"/>
</svg>
