<svg width="1360" height="473" viewBox="0 0 1360 473" fill="none" xmlns="http://www.w3.org/2000/svg">
<path d="M1186.5 236.5C1186.5 260.66 1172.42 283.748 1146.8 304.816C1121.18 325.88 1084.08 344.873 1038.19 360.832C946.419 392.75 819.602 412.5 679.5 412.5C539.398 412.5 412.581 392.75 320.808 360.832C274.918 344.873 237.818 325.88 212.199 304.816C186.578 283.748 172.5 260.66 172.5 236.5C172.5 212.34 186.578 189.252 212.199 168.184C237.818 147.12 274.918 128.127 320.808 112.168C412.581 80.2505 539.398 60.5 679.5 60.5C819.602 60.5 946.419 80.2505 1038.19 112.168C1084.08 128.127 1121.18 147.12 1146.8 168.184C1172.42 189.252 1186.5 212.34 1186.5 236.5Z" stroke="#004D35"/>
<path d="M1359.5 236.5C1359.5 268.944 1340.6 299.924 1306.24 328.17C1271.9 356.413 1222.17 381.87 1160.67 403.259C1037.68 446.034 867.736 472.5 680 472.5C492.264 472.5 322.322 446.034 199.332 403.259C137.834 381.87 88.1027 356.413 53.7553 328.17C19.4046 299.924 0.5 268.944 0.5 236.5C0.5 204.056 19.4046 173.076 53.7553 144.83C88.1027 116.587 137.834 91.13 199.332 69.7415C322.322 26.9662 492.264 0.5 680 0.5C867.736 0.5 1037.68 26.9662 1160.67 69.7415C1222.17 91.13 1271.9 116.587 1306.24 144.83C1340.6 173.076 1359.5 204.056 1359.5 236.5Z" stroke="#004D35"/>
<path d="M1017.5 236C1017.5 252.083 1008.15 267.477 991.081 281.545C974.015 295.611 949.289 308.3 918.691 318.966C857.5 340.297 772.933 353.5 679.5 353.5C586.067 353.5 501.5 340.297 440.309 318.966C409.711 308.3 384.985 295.611 367.919 281.545C350.849 267.477 341.5 252.083 341.5 236C341.5 219.917 350.849 204.523 367.919 190.455C384.985 176.389 409.711 163.7 440.309 153.034C501.5 131.703 586.067 118.5 679.5 118.5C772.933 118.5 857.5 131.703 918.691 153.034C949.289 163.7 974.015 176.389 991.081 190.455C1008.15 204.523 1017.5 219.917 1017.5 236Z" stroke="#004D35"/>
<g class='telesens-logo-icon'>
<path fill-rule="evenodd" clip-rule="evenodd" d="M739.529 174.109L740.339 174.314C740.137 174.109 739.732 174.109 739.529 174.109Z" fill="#004D35"/>
<path fill-rule="evenodd" clip-rule="evenodd" d="M531.343 262.199C531.749 262.807 532.358 263.212 532.967 263.819C532.358 263.414 531.749 262.807 531.343 262.199Z" fill="#004D35"/>
<path fill-rule="evenodd" clip-rule="evenodd" d="M527.905 257.944C527.5 257.337 527.298 256.932 526.893 256.324C527.095 256.932 527.5 257.337 527.905 257.944Z" fill="#004D35"/>
<path fill-rule="evenodd" clip-rule="evenodd" d="M530.139 260.983C529.734 260.376 529.329 259.768 528.722 259.363C529.329 259.768 529.734 260.376 530.139 260.983Z" fill="#004D35"/>
<path fill-rule="evenodd" clip-rule="evenodd" d="M647.75 300.479C645.516 300.275 643.282 300.275 641.049 300.07C643.282 300.275 645.516 300.275 647.75 300.479Z" fill="#004D35"/>
<path fill-rule="evenodd" clip-rule="evenodd" d="M820.773 202.054C805.541 194.561 766.749 190.713 723.083 193.346C668.652 196.586 626.611 208.737 629.658 220.28C632.704 231.418 676.167 238.101 727.754 235.671L727.754 235.671C725.52 235.873 723.286 236.076 721.052 236.076C659.31 239.721 606.301 232.228 602.849 219.065C599.396 206.104 646.515 192.333 707.85 188.688C711.506 184.435 723.489 178.36 738.924 174.107C720.036 171.475 699.523 170.462 677.792 171.272C590.663 174.31 520.797 205.699 522.016 241.543C522.219 246.201 523.64 250.859 526.078 255.112C537.654 267.87 582.742 276.173 637.172 274.755C701.554 272.932 755.172 258.149 756.797 241.543C758.219 225.748 711.1 214.002 650.171 214.609C652.811 214.407 655.451 214.407 658.091 214.407C730.8 212.382 788.887 226.153 787.059 244.784C785.434 261.187 739.331 275.97 679.214 280.83C675.152 286.703 663.778 293.994 648.546 300.474C659.513 301.081 670.683 301.081 682.26 300.879C769.592 297.841 839.458 266.452 838.239 230.608C838.239 220.077 831.943 210.357 820.773 202.054ZM728.768 187.876C762.685 187.066 792.337 189.902 809.804 194.964C792.947 185.649 769.794 178.561 742.782 174.511C728.158 180.384 722.269 185.851 728.768 187.876ZM536.44 267.062C557.156 277.187 600.416 283.465 650.784 282.25C658.095 285.085 653.424 291.971 639.817 299.868C593.916 296.223 555.937 284.073 536.44 267.062Z" fill="#004D35"/>
<path fill-rule="evenodd" clip-rule="evenodd" d="M535.845 266.651C535.236 266.044 534.627 265.639 534.221 265.031C534.83 265.639 535.236 266.246 535.845 266.651Z" fill="#004D35"/></g>
</svg>
