<svg
      id="floating-pointer"
      width="200"
      height="200"
      viewBox="0 0 200 200"
      fill="none"
      xmlns="http://www.w3.org/2000/svg">
      <circle cx="100" cy="100" r="100" transform="rotate(-180 100 100)" fill="white" />
      <path
        d="M168.835 131.804C169.348 130.763 170.027 129.96 170.874 129.396C171.715 128.843 172.677 128.563 173.761 128.556C174.844 128.549 175.998 128.847 177.223 129.45C178.436 130.047 179.365 130.788 180.009 131.674C180.665 132.566 181.022 133.545 181.08 134.611C181.138 135.677 180.891 136.771 180.339 137.893C179.73 139.129 179.014 140.006 178.191 140.524C177.372 141.06 176.379 141.317 175.209 141.296L175.347 138.634C176.043 138.749 176.644 138.654 177.15 138.349C177.662 138.061 178.075 137.596 178.391 136.955C178.864 135.994 178.901 135.067 178.502 134.174C178.102 133.281 177.279 132.527 176.032 131.913C174.739 131.277 173.628 131.064 172.699 131.275C171.771 131.486 171.048 132.118 170.529 133.171C170.152 133.938 170.023 134.663 170.141 135.347C170.265 136.048 170.705 136.584 171.46 136.956L171.718 137.082L173.179 134.113L174.913 134.966L172.446 139.978L166.472 137.038L167.292 135.373L168.784 135.98C168.427 135.406 168.246 134.762 168.242 134.05C168.249 133.342 168.447 132.594 168.835 131.804Z"
        fill="#004D35"
      />
      <path
        d="M158.443 147.746C159.418 146.6 160.53 145.963 161.777 145.835C163.034 145.715 164.26 146.164 165.455 147.18C166.252 147.858 166.8 148.592 167.099 149.382C167.398 150.172 167.462 150.972 167.293 151.782C167.114 152.602 166.72 153.371 166.108 154.09C165.48 154.828 164.796 155.327 164.057 155.586C163.328 155.853 162.59 155.903 161.844 155.737C161.107 155.58 160.413 155.224 159.762 154.67C159.568 154.505 159.388 154.343 159.221 154.185C159.054 154.026 158.911 153.879 158.792 153.744L163.167 148.6C162.538 148.198 161.95 148.033 161.404 148.104C160.859 148.194 160.372 148.491 159.942 148.996C159.578 149.424 159.368 149.839 159.31 150.241C159.252 150.644 159.307 151.042 159.474 151.436L157.511 152.504C157.136 151.783 157.036 150.995 157.211 150.139C157.396 149.292 157.807 148.494 158.443 147.746ZM164.649 152.823C165.45 151.881 165.414 150.871 164.54 149.792L161.751 153.071C162.305 153.442 162.83 153.604 163.323 153.555C163.818 153.524 164.26 153.28 164.649 152.823Z"
        fill="#004D35"
      />
      <path
        d="M149.902 168.798L148.71 167.253L151.133 165.383L148.386 161.824C148.106 161.46 147.808 161.263 147.494 161.231C147.178 161.218 146.858 161.336 146.535 161.585C146.272 161.787 146.077 161.994 145.95 162.205C145.821 162.434 145.731 162.672 145.681 162.921L144.284 161.799C144.388 161.413 144.579 161.024 144.857 160.632C145.125 160.248 145.461 159.901 145.864 159.589C146.622 159.004 147.375 158.697 148.125 158.666C148.872 158.653 149.565 159.061 150.204 159.889L153.208 163.782L154.602 162.706L155.794 164.251L154.4 165.327L155.744 167.069L154.113 169.245L152.325 166.928L149.902 168.798Z"
        fill="#004D35"
      />
      <path
        d="M129 181.005C130.025 180.651 130.689 180.914 130.993 181.794C131.301 182.686 130.943 183.309 129.918 183.663C128.893 184.017 128.227 183.748 127.919 182.856C127.615 181.976 127.975 181.359 129 181.005ZM127.321 180.127L124.199 171.085L126.676 170.23L129.798 179.272L127.321 180.127Z"
        fill="#004D35"
      />
      <path
        d="M115.339 173.573L116.666 183.046L114.335 183.373L113.991 181.605C113.793 182.303 113.439 182.855 112.929 183.261C112.406 183.669 111.779 183.924 111.046 184.027C110.061 184.165 109.206 183.988 108.48 183.498C107.756 183.019 107.314 182.206 107.153 181.056L106.282 174.842L108.878 174.478L109.645 179.954C109.758 180.762 110 181.295 110.371 181.552C110.731 181.823 111.157 181.925 111.65 181.856C112.004 181.806 112.339 181.669 112.655 181.445C112.96 181.234 113.194 180.925 113.356 180.516C113.505 180.108 113.535 179.589 113.446 178.957L112.743 173.936L115.339 173.573Z"
        fill="#004D35"
      />
      <path
        d="M77.4642 181.551L77.8981 179.648L80.8826 180.329L81.8823 175.945C81.9844 175.498 81.9477 175.143 81.772 174.88C81.5811 174.627 81.2867 174.456 80.8888 174.365C80.5655 174.291 80.282 174.272 80.0383 174.308C79.7793 174.354 79.5381 174.436 79.3147 174.555L79.2915 172.764C79.6563 172.599 80.0781 172.499 80.557 172.464C81.0234 172.427 81.5053 172.465 82.0027 172.578C82.9354 172.791 83.6519 173.177 84.1524 173.735C84.6376 174.304 84.7639 175.098 84.5314 176.118L83.4381 180.912L85.1542 181.303L84.7203 183.206L83.0042 182.814L82.515 184.959L79.7978 185.085L80.4487 182.231L77.4642 181.551Z"
        fill="#004D35"
      />
      <path
        d="M64.1597 176.844C63.2914 176.443 62.6045 175.907 62.0989 175.238C61.5933 174.569 61.3104 173.813 61.2503 172.97C61.1787 172.122 61.3623 171.223 61.8011 170.274C62.2399 169.324 62.8056 168.602 63.498 168.107C64.1789 167.607 64.9381 167.333 65.7755 167.284C66.6129 167.236 67.4657 167.412 68.334 167.813C69.2139 168.22 69.9067 168.758 70.4123 169.427C70.9063 170.091 71.1892 170.847 71.2608 171.695C71.3209 172.538 71.1315 173.434 70.6927 174.384C70.2539 175.333 69.694 176.058 69.0131 176.558C68.3207 177.053 67.5615 177.327 66.7357 177.381C65.8983 177.43 65.0396 177.251 64.1597 176.844ZM64.9785 175.073C65.6269 175.372 66.2433 175.376 66.8279 175.084C67.3955 174.799 67.8907 174.199 68.3135 173.284C68.7363 172.369 68.8752 171.597 68.7304 170.968C68.5686 170.346 68.1636 169.884 67.5152 169.585C66.8785 169.29 66.2763 169.286 65.7087 169.572C65.1241 169.863 64.6204 170.467 64.1977 171.381C63.7749 172.296 63.6444 173.065 63.8061 173.687C63.951 174.316 64.3418 174.778 64.9785 175.073Z"
        fill="#004D35"
      />
      <path
        d="M54.0451 159.272C54.5469 159.666 54.9278 160.11 55.1876 160.606C55.4474 161.101 55.5443 161.639 55.4783 162.219C55.4022 162.792 55.1124 163.399 54.6087 164.041L50.6895 169.04L48.6269 167.423L52.1565 162.921C52.6129 162.339 52.8112 161.838 52.7513 161.418C52.6836 161.009 52.4239 160.627 51.9722 160.272C51.5406 159.934 51.0372 159.791 50.462 159.842C49.8689 159.896 49.2969 160.274 48.746 160.976L45.5705 165.026L43.5079 163.409L49.4103 155.881L51.2471 157.321L50.2953 158.69C50.9319 158.395 51.5654 158.3 52.1959 158.406C52.8265 158.511 53.4428 158.8 54.0451 159.272Z"
        fill="#004D35"
      />
      <path
        d="M32.8775 152.454C32.0816 151.458 31.679 150.514 31.6698 149.624C31.6527 148.723 31.8764 147.941 32.3411 147.276L34.557 148.64C33.8092 149.564 33.7497 150.419 34.3785 151.207C34.8322 151.775 35.3857 152.059 36.0391 152.06C36.6845 152.05 37.4008 151.731 38.1882 151.102C38.9855 150.466 39.4512 149.833 39.5852 149.203C39.7012 148.572 39.5364 147.977 39.0907 147.419C38.3982 146.552 37.5408 146.388 36.5185 146.927L35.6361 144.596C36.4391 144.232 37.2848 144.177 38.173 144.43C39.0532 144.674 39.8634 145.259 40.6036 146.186C41.2244 146.964 41.6152 147.77 41.7758 148.605C41.9285 149.429 41.8432 150.232 41.5198 151.013C41.1964 151.793 40.6261 152.51 39.8089 153.162C38.9916 153.815 38.1666 154.213 37.3339 154.356C36.4931 154.488 35.6915 154.394 34.9288 154.073C34.1582 153.741 33.4745 153.202 32.8775 152.454Z"
        fill="#004D35"
      />
      <path
        d="M32.9276 135.293L20.4932 141.176L19.3722 138.807L24.6296 136.319C23.9453 136.304 23.356 136.117 22.8617 135.759C22.3559 135.405 21.9584 134.923 21.6693 134.312C21.2438 133.413 21.1571 132.544 21.4093 131.705C21.6499 130.871 22.2948 130.206 23.3439 129.71L29.0164 127.026L30.1374 129.395L25.1567 131.752C24.4073 132.106 23.9624 132.493 23.8221 132.912C23.6702 133.337 23.7007 133.774 23.9134 134.224C24.0716 134.558 24.3023 134.837 24.6056 135.06C24.8973 135.289 25.2682 135.417 25.7184 135.444C26.157 135.476 26.6645 135.356 27.241 135.083L31.8066 132.923L32.9276 135.293Z"
        fill="#004D35"
      />
      <path
        d="M31.4069 69.5924C30.8944 70.6338 30.2149 71.4366 29.3685 72.0009C28.5277 72.5538 27.5655 72.8336 26.4817 72.8404C25.398 72.8472 24.2439 72.5492 23.0194 71.9465C21.8064 71.3495 20.8777 70.608 20.2333 69.7222C19.5774 68.8307 19.2205 67.8519 19.1625 66.7855C19.1045 65.7192 19.3515 64.6253 19.9035 63.5039C20.5118 62.268 21.2279 61.3907 22.0517 60.8722C22.8698 60.3366 23.8636 60.0794 25.033 60.1006L24.8957 62.7625C24.1991 62.647 23.5979 62.7421 23.0921 63.0475C22.5805 63.336 22.167 63.8006 21.8516 64.4414C21.3785 65.4027 21.3415 66.3298 21.7406 67.2229C22.1398 68.116 22.9631 68.8695 24.2104 69.4834C25.5036 70.1199 26.6143 70.3326 27.5428 70.1214C28.4713 69.9103 29.1946 69.2783 29.7128 68.2255C30.0902 67.4587 30.2197 66.7335 30.1013 66.0497C29.9772 65.3489 29.5374 64.8126 28.7822 64.4409L28.5247 64.3141L27.063 67.2837L25.3293 66.4304L27.7964 61.4181L33.7699 64.3583L32.9504 66.0234L31.4578 65.4167C31.8151 65.9905 31.9959 66.634 32.0004 67.347C31.9934 68.0543 31.7956 68.8028 31.4069 69.5924Z"
        fill="#004D35"
      />
      <path
        d="M41.7991 53.6502C40.8239 54.7967 39.7127 55.4338 38.4653 55.5617C37.2082 55.6813 35.9822 55.2329 34.7871 54.2165C33.9905 53.5389 33.4426 52.805 33.1435 52.0148C32.8444 51.2246 32.7798 50.4245 32.9497 49.6145C33.1278 48.7949 33.5226 48.0255 34.1341 47.3066C34.7622 46.5682 35.4457 46.0696 36.1849 45.8109C36.9144 45.5439 37.6522 45.4933 38.3985 45.6592C39.1351 45.8169 39.8289 46.1726 40.4798 46.7263C40.6742 46.8915 40.8546 47.0534 41.0212 47.2119C41.1879 47.3703 41.3309 47.5171 41.4504 47.6522L37.0748 52.7967C37.7044 53.1982 38.2923 53.3634 38.8385 53.2921C39.3832 53.2029 39.8705 52.9057 40.3002 52.4005C40.6638 51.973 40.8746 51.5578 40.9325 51.155C40.9905 50.7522 40.9357 50.354 40.7682 49.9604L42.7314 48.8925C43.1063 49.6132 43.2061 50.4014 43.0309 51.257C42.846 52.1044 42.4354 52.9021 41.7991 53.6502ZM35.5936 48.5731C34.7921 49.5155 34.8284 50.526 35.7027 51.6045L38.4917 48.3255C37.9369 47.9541 37.4127 47.7928 36.919 47.8417C36.4238 47.8727 35.982 48.1165 35.5936 48.5731Z"
        fill="#004D35"
      />
      <path
        d="M50.3405 32.5984L51.5327 34.1434L49.1092 36.0135L51.8559 39.573C52.1364 39.9365 52.4338 40.134 52.748 40.1654C53.0645 40.1789 53.3844 40.061 53.7075 39.8116C53.97 39.609 54.1649 39.4023 54.2921 39.1913C54.4217 38.9625 54.5115 38.724 54.5617 38.4758L55.9585 39.5971C55.8541 39.9837 55.663 40.3728 55.3852 40.7644C55.1175 41.1482 54.7817 41.496 54.3778 41.8076C53.6204 42.392 52.8669 42.6996 52.1173 42.7303C51.37 42.7431 50.6769 42.3355 50.0379 41.5075L47.0341 37.6148L45.6406 38.6901L44.4484 37.1451L45.8419 36.0698L44.4978 34.3279L46.1288 32.1511L47.917 34.4685L50.3405 32.5984Z"
        fill="#004D35"
      />
      <path
        d="M71.2422 20.3918C70.2174 20.7456 69.5531 20.4825 69.2492 19.6024C68.9411 18.7102 69.2995 18.0872 70.3243 17.7334C71.349 17.3795 72.0155 17.6487 72.3235 18.5409C72.6274 19.421 72.267 20.0379 71.2422 20.3918ZM72.9215 21.2692L76.0437 30.3114L73.5661 31.1669L70.444 22.1247L72.9215 21.2692Z"
        fill="#004D35"
      />
      <path
        d="M84.9034 27.8236L83.5763 18.3501L85.9068 18.0237L86.251 19.7914C86.4496 19.0939 86.8037 18.542 87.3135 18.1357C87.8359 17.7277 88.4634 17.4723 89.196 17.3697C90.1813 17.2317 91.0367 17.4081 91.7623 17.8989C92.4861 18.3771 92.9285 19.1909 93.0895 20.3403L93.9601 26.5549L91.3643 26.9186L90.5973 21.4429C90.484 20.6345 90.242 20.1017 89.8711 19.8446C89.5111 19.573 89.0848 19.4717 88.5921 19.5407C88.2385 19.5903 87.9035 19.7274 87.5872 19.952C87.2818 20.1622 87.0483 20.4718 86.8866 20.8808C86.7376 21.2881 86.7073 21.8075 86.7958 22.439L87.4991 27.46L84.9034 27.8236Z"
        fill="#004D35"
      />
      <path
        d="M122.778 19.8457L122.344 21.7483L119.36 21.0676L118.36 25.4511C118.258 25.8988 118.295 26.2538 118.47 26.5163C118.661 26.7691 118.956 26.9409 119.353 27.0317C119.677 27.1054 119.96 27.1243 120.204 27.0883C120.463 27.0427 120.704 26.9603 120.927 26.8412L120.951 28.6322C120.586 28.7976 120.164 28.8976 119.685 28.9323C119.219 28.9698 118.737 28.9319 118.24 28.8184C117.307 28.6057 116.59 28.2199 116.09 27.661C115.605 27.0925 115.478 26.2984 115.711 25.2787L116.804 20.4848L115.088 20.0934L115.522 18.1908L117.238 18.5822L117.727 16.4371L120.444 16.3111L119.794 19.165L122.778 19.8457Z"
        fill="#004D35"
      />
      <path
        d="M136.083 24.5526C136.951 24.954 137.638 25.4893 138.143 26.1586C138.649 26.8279 138.932 27.584 138.992 28.4267C139.064 29.2748 138.88 30.1736 138.441 31.1229C138.002 32.0723 137.437 32.7944 136.744 33.2893C136.063 33.7896 135.304 34.0639 134.467 34.1124C133.629 34.1609 132.777 33.9845 131.908 33.5831C131.028 33.1764 130.336 32.6384 129.83 31.9691C129.336 31.3051 129.053 30.5491 128.981 29.701C128.921 28.8582 129.111 27.9622 129.55 27.0128C129.988 26.0635 130.548 25.3387 131.229 24.8384C131.922 24.3435 132.681 24.0691 133.507 24.0153C134.344 23.9668 135.203 24.1459 136.083 24.5526ZM135.264 26.324C134.615 26.0243 133.999 26.0204 133.414 26.3122C132.847 26.5978 132.352 27.198 131.929 28.1126C131.506 29.0272 131.367 29.799 131.512 30.428C131.674 31.0508 132.079 31.5121 132.727 31.8118C133.364 32.1061 133.966 32.1105 134.534 31.8248C135.118 31.533 135.622 30.9297 136.045 30.0151C136.467 29.1005 136.598 28.3318 136.436 27.709C136.291 27.08 135.9 26.6183 135.264 26.324Z"
        fill="#004D35"
      />
      <path
        d="M146.197 42.1244C145.695 41.7309 145.314 41.2864 145.055 40.791C144.795 40.2955 144.698 39.7576 144.764 39.1773C144.84 38.6048 145.13 37.9974 145.634 37.355L149.553 32.3564L151.615 33.9737L148.086 38.4754C147.629 39.0576 147.431 39.5585 147.491 39.9783C147.559 40.388 147.818 40.7699 148.27 41.124C148.702 41.4624 149.205 41.6059 149.78 41.5544C150.373 41.5008 150.945 41.1227 151.496 40.4201L154.672 36.3701L156.734 37.9873L150.832 45.5153L148.995 44.0751L149.947 42.7062C149.31 43.0013 148.677 43.0961 148.046 42.9908C147.416 42.8854 146.799 42.5966 146.197 42.1244Z"
        fill="#004D35"
      />
      <path
        d="M167.373 48.9421C168.168 49.9387 168.571 50.8822 168.58 51.7727C168.597 52.673 168.374 53.4557 167.909 54.1206L165.693 52.7562C166.441 51.8326 166.5 50.9771 165.872 50.1897C165.418 49.6217 164.864 49.3373 164.211 49.3368C163.566 49.3462 162.849 49.6653 162.062 50.2941C161.265 50.9308 160.799 51.5638 160.665 52.1932C160.549 52.8245 160.714 53.4193 161.159 53.9774C161.852 54.8445 162.709 55.0085 163.732 54.4696L164.614 56.8009C163.811 57.1648 162.965 57.2198 162.077 56.9661C161.197 56.7223 160.387 56.137 159.646 55.2101C159.026 54.4327 158.635 53.6267 158.474 52.7919C158.322 51.9671 158.407 51.1644 158.73 50.3838C159.054 49.6033 159.624 48.8867 160.441 48.234C161.258 47.5813 162.083 47.1837 162.916 47.0409C163.757 46.9082 164.559 47.0025 165.321 47.3239C166.092 47.6552 166.776 48.1946 167.373 48.9421Z"
        fill="#004D35"
      />
      <path
        d="M167.315 66.1039L179.749 60.2207L180.87 62.59L175.613 65.0774C176.297 65.0923 176.886 65.2791 177.381 65.6379C177.886 65.9912 178.284 66.4734 178.573 67.0844C178.998 67.9837 179.085 68.8528 178.833 69.6917C178.592 70.5252 177.947 71.1901 176.898 71.6866L171.226 74.3704L170.105 72.0011L175.086 69.6446C175.835 69.29 176.28 68.9031 176.42 68.484C176.572 68.0594 176.542 67.6223 176.329 67.1726C176.171 66.8383 175.94 66.5594 175.637 66.336C175.345 66.1072 174.974 65.9793 174.524 65.9524C174.085 65.92 173.578 66.0402 173.001 66.313L168.436 68.4732L167.315 66.1039Z"
        fill="#004D35"
      />
      <path
        d="M134.509 79.7437C134.938 78.1433 133.988 76.4983 132.388 76.0695L106.308 69.0814C104.707 68.6525 103.062 69.6023 102.633 71.2027C102.205 72.8031 103.154 74.4481 104.755 74.8769L127.937 81.0886L121.725 104.271C121.296 105.871 122.246 107.516 123.847 107.945C125.447 108.374 127.092 107.424 127.521 105.824L134.509 79.7437ZM63.709 121.635L133.111 81.5653L130.111 76.3692L60.709 116.439L63.709 121.635Z"
        fill="#004D35"
      />
    </svg>