<svg class='send-button' width="180" height="180" viewBox="0 0 180 180" fill="none" xmlns="http://www.w3.org/2000/svg">
<path d="M180 90C180 139.706 139.706 180 90 180C40.2944 180 0 139.706 0 90C0 40.2944 40.2944 0 90 0C139.706 0 180 40.2944 180 90Z" fill="#004D35"/>
<path fill-rule="evenodd" clip-rule="evenodd" d="M93.5767 63.1033L117.049 69.3927C118.489 69.7786 119.344 71.2591 118.958 72.6995L112.669 96.1715C112.283 97.6118 110.802 98.4666 109.362 98.0807C107.921 97.6947 107.067 96.2142 107.453 94.7738L112.055 77.5981L55.346 110.339L52.646 105.662L109.355 72.9216L92.1791 68.3194C90.7387 67.9334 89.8839 66.4529 90.2699 65.0125C90.6558 63.5722 92.1363 62.7174 93.5767 63.1033Z" fill="white"/>
<path d="M38.075 131.863C38.5686 132.462 38.9136 133.098 39.1098 133.771C39.2995 134.435 39.3277 135.081 39.1945 135.707L37.4781 135.551C37.6062 135.128 37.631 134.684 37.5527 134.219C37.4743 133.754 37.2565 133.304 36.8992 132.871C36.6459 132.563 36.4011 132.354 36.165 132.244C35.9144 132.133 35.6905 132.158 35.4933 132.321C35.367 132.424 35.2963 132.556 35.2809 132.714C35.2577 132.878 35.3257 133.114 35.4848 133.42L36.1292 134.636C36.5523 135.44 36.742 136.104 36.6984 136.63C36.6403 137.154 36.3825 137.605 35.9249 137.982C35.6014 138.248 35.2198 138.403 34.7799 138.448C34.3335 138.484 33.8643 138.381 33.3725 138.137C32.8727 137.9 32.3858 137.493 31.9116 136.918C30.9242 135.718 30.5831 134.556 30.8881 133.432L32.6337 133.623C32.5005 134.023 32.4798 134.424 32.5717 134.825C32.6491 135.225 32.8145 135.578 33.0678 135.886C33.6395 136.58 34.1186 136.768 34.5051 136.45C34.6314 136.346 34.6963 136.2 34.7001 136.012C34.6959 135.83 34.6052 135.567 34.428 135.223L33.6827 133.811C33.3203 133.13 33.1772 132.546 33.2534 132.06C33.3217 131.58 33.553 131.178 33.9475 130.853C34.5155 130.385 35.1733 130.228 35.9208 130.38C36.6619 130.524 37.3799 131.019 38.075 131.863Z" fill="white"/>
<path d="M28.9167 117.492C29.4306 118.582 29.5279 119.604 29.2084 120.557C28.8798 121.514 28.1469 122.26 27.0098 122.796C26.2517 123.153 25.5349 123.31 24.8593 123.266C24.1837 123.223 23.5785 123.006 23.0437 122.614C22.5045 122.213 22.0738 121.67 21.7515 120.986C21.4205 120.283 21.2829 119.619 21.3386 118.994C21.3852 118.374 21.5924 117.819 21.9605 117.329C22.3192 116.844 22.8083 116.455 23.4277 116.163C23.6126 116.076 23.7905 115.998 23.9612 115.929C24.132 115.86 24.2864 115.804 24.4246 115.761L26.7307 120.656C27.232 120.33 27.5471 119.956 27.6758 119.533C27.7909 119.106 27.7352 118.653 27.5088 118.172C27.3171 117.765 27.084 117.474 26.8092 117.298C26.5345 117.123 26.2257 117.031 25.8831 117.023L25.7534 115.237C26.4034 115.202 27.0116 115.39 27.5779 115.801C28.1351 116.216 28.5813 116.78 28.9167 117.492ZM23.1586 120.34C23.5811 121.237 24.3304 121.544 25.4067 121.263L23.9369 118.143C23.4823 118.425 23.1911 118.754 23.0635 119.131C22.9222 119.502 22.9539 119.905 23.1586 120.34Z" fill="white"/>
<path d="M24.2729 105.292L16.7328 106.667L16.3945 104.812L17.7983 104.478C17.2334 104.342 16.7798 104.077 16.4378 103.682C16.0939 103.277 15.8687 102.784 15.7624 102.2C15.6194 101.416 15.7323 100.726 16.1013 100.129C16.4602 99.5333 17.097 99.1523 18.0119 98.9854L22.9582 98.0833L23.335 100.149L18.9768 100.944C18.3334 101.061 17.9149 101.273 17.7213 101.578C17.5158 101.875 17.4488 102.22 17.5203 102.612C17.5717 102.894 17.6925 103.157 17.8827 103.403C18.0611 103.641 18.3167 103.817 18.6494 103.933C18.9804 104.039 19.3972 104.046 19.8999 103.954L23.8961 103.226L24.2729 105.292Z" fill="white"/>
<path d="M22.7288 84.4016C22.6714 85.0326 22.4623 85.583 22.1014 86.053C21.7415 86.5128 21.2585 86.8588 20.6524 87.091C20.0371 87.312 19.3122 87.3846 18.4777 87.3087C17.633 87.2318 16.9289 87.0189 16.3655 86.6701C15.7919 86.3203 15.3751 85.8822 15.1152 85.3557C14.846 84.8181 14.7401 84.2339 14.7975 83.6029C14.8475 83.0533 15.0229 82.5921 15.3236 82.2193C15.6244 81.8464 16.0028 81.5781 16.4589 81.4144L11.8181 80.9921L12.0084 78.9007L22.9846 79.8995L22.8137 81.7772L21.3246 81.7341C21.814 81.9941 22.1859 82.3614 22.4403 82.8361C22.6845 83.3098 22.7807 83.8316 22.7288 84.4016ZM21.1815 83.6451C21.2306 83.1057 21.0613 82.6542 20.6737 82.2905C20.2759 81.9259 19.6902 81.7085 18.9167 81.6381C18.184 81.5714 17.6043 81.6828 17.1778 81.9724C16.742 82.2508 16.5 82.6547 16.4518 83.1839C16.4 83.7538 16.5628 84.2201 16.9402 84.5829C17.3084 84.9345 17.8793 85.1455 18.6527 85.2159C19.4262 85.2862 20.0309 85.1822 20.4667 84.9038C20.8923 84.6244 21.1306 84.2048 21.1815 83.6451Z" fill="white"/>
<path d="M32.3295 54.3346C31.921 54.9951 31.43 55.5265 30.8566 55.9289C30.2887 56.3226 29.6869 56.5572 29.0514 56.6327L28.6456 54.9577C29.0875 54.9427 29.5159 54.8232 29.9308 54.5992C30.3457 54.3752 30.701 54.0242 30.9967 53.5462C31.2064 53.2072 31.3253 52.9083 31.3533 52.6492C31.378 52.3761 31.2818 52.1724 31.0645 52.038C30.9254 51.952 30.7785 51.9272 30.6238 51.9637C30.4604 51.9947 30.2595 52.1349 30.0213 52.384L29.077 53.3861C28.4529 54.0454 27.8849 54.4391 27.3731 54.5672C26.858 54.6811 26.3484 54.5822 25.8443 54.2704C25.488 54.05 25.2179 53.7387 25.0341 53.3366C24.8556 52.9258 24.8025 52.4483 24.8747 51.9042C24.9382 51.3547 25.1662 50.7627 25.5587 50.1282C26.3758 48.8072 27.3659 48.1099 28.529 48.0363L28.9107 49.7504C28.4882 49.7534 28.102 49.863 27.752 50.0791C27.3987 50.2811 27.1173 50.5516 26.9076 50.8906C26.4345 51.6554 26.4109 52.1695 26.8368 52.4329C26.9758 52.5189 27.1351 52.5334 27.3147 52.4762C27.4855 52.4137 27.7052 52.2431 27.9736 51.9646L29.0699 50.8042C29.5981 50.2417 30.1047 49.9182 30.5896 49.8336C31.0658 49.7437 31.5212 49.8331 31.9557 50.1019C32.5815 50.489 32.9427 51.0609 33.0393 51.8176C33.1414 52.5657 32.9048 53.4047 32.3295 54.3346Z" fill="white"/>
<path d="M42.9891 41.0388C42.1219 41.8767 41.186 42.2979 40.1813 42.3024C39.1696 42.2995 38.227 41.8461 37.3535 40.9422C36.7712 40.3396 36.3917 39.7116 36.215 39.0581C36.0383 38.4046 36.0493 37.7616 36.248 37.129C36.4541 36.4893 36.8291 35.9067 37.3729 35.3812C37.9314 34.8415 38.5155 34.4974 39.1251 34.3488C39.7276 34.1929 40.3199 34.2103 40.9021 34.401C41.4771 34.5843 42.0025 34.9221 42.4783 35.4145C42.6203 35.5615 42.7516 35.7046 42.8721 35.844C42.9925 35.9834 43.0951 36.1116 43.1799 36.2287L39.2886 39.9889C39.7593 40.3583 40.2152 40.5359 40.6563 40.5218C41.0976 40.4932 41.5094 40.2943 41.8915 39.925C42.2149 39.6126 42.4154 39.298 42.4931 38.9814C42.5708 38.6647 42.5582 38.3429 42.4554 38.0159L44.1044 37.3178C44.347 37.9218 44.365 38.5581 44.1584 39.2267C43.9447 39.8879 43.5549 40.492 42.9891 41.0388ZM38.4377 36.5052C37.7249 37.1941 37.6749 38.0026 38.2877 38.931L40.768 36.5343C40.3546 36.1948 39.9492 36.0252 39.5517 36.0256C39.1544 36.0116 38.7831 36.1715 38.4377 36.5052Z" fill="white"/>
<path d="M53.0439 32.7123L49.3129 26.0172L50.9599 25.0994L51.7283 26.3207C51.6749 25.7421 51.7799 25.2273 52.0434 24.7764C52.3157 24.3204 52.7108 23.9482 53.2285 23.6596C53.9248 23.2716 54.615 23.156 55.2991 23.313C55.9782 23.461 56.5441 23.9411 56.9968 24.7535L59.4444 29.1454L57.6099 30.1677L55.4534 26.298C55.135 25.7267 54.8001 25.3986 54.4486 25.3137C54.1011 25.2149 53.7532 25.2625 53.4051 25.4565C53.1551 25.5958 52.9445 25.7951 52.7731 26.0543C52.6057 26.2997 52.5207 26.5986 52.5182 26.951C52.5246 27.2984 52.6522 27.6952 52.9009 28.1416L54.8784 31.69L53.0439 32.7123Z" fill="white"/>
<path d="M72.3189 24.5194C71.7031 24.6684 71.1146 24.6477 70.5534 24.4575C70.0021 24.2648 69.519 23.9191 69.104 23.4201C68.6965 22.9089 68.3942 22.246 68.1973 21.4315C67.9979 20.607 67.9726 19.8719 68.1214 19.2262C68.2677 18.5705 68.5482 18.0348 68.9629 17.6191C69.385 17.1911 69.9041 16.9026 70.5199 16.7537C71.0563 16.624 71.5494 16.6414 71.9992 16.806C72.4491 16.9706 72.825 17.2424 73.1269 17.6215L72.0316 13.092L74.0729 12.5984L76.6634 23.3112L74.8307 23.7543L74.3918 22.3307C74.3033 22.8778 74.0754 23.3482 73.708 23.742C73.3382 24.1258 72.8752 24.3849 72.3189 24.5194ZM72.5366 22.8109C73.0631 22.6836 73.436 22.3779 73.6553 21.8937C73.8723 21.3997 73.8895 20.7752 73.707 20.0203C73.534 19.3051 73.2418 18.7923 72.8303 18.4818C72.4263 18.1589 71.966 18.0599 71.4495 18.1848C70.8933 18.3193 70.5042 18.6237 70.2825 19.0979C70.0682 19.5597 70.0524 20.1681 70.2349 20.923C70.4175 21.6779 70.7107 22.2168 71.1147 22.5396C71.5163 22.8526 71.9903 22.943 72.5366 22.8109Z" fill="white"/>
<path d="M103.88 23.9286C103.123 23.7546 102.461 23.461 101.896 23.0479C101.34 22.637 100.924 22.1429 100.648 21.5656L102.103 20.6418C102.26 21.0553 102.511 21.4224 102.856 21.743C103.202 22.0637 103.649 22.2869 104.197 22.4129C104.585 22.5022 104.906 22.5184 105.161 22.4615C105.427 22.3969 105.589 22.2401 105.646 21.9911C105.683 21.8318 105.659 21.6847 105.575 21.55C105.493 21.4053 105.295 21.2603 104.983 21.115L103.73 20.5439C102.904 20.1654 102.349 19.7546 102.063 19.3113C101.789 18.8604 101.718 18.3461 101.851 17.7685C101.945 17.3601 102.153 17.0042 102.474 16.7006C102.806 16.3993 103.24 16.1951 103.779 16.0882C104.32 15.9713 104.953 15.9965 105.68 16.1636C107.194 16.5116 108.173 17.2243 108.618 18.3017L107.118 19.2152C106.979 18.8162 106.751 18.4859 106.434 18.2242C106.129 17.9548 105.782 17.7755 105.393 17.6862C104.517 17.4847 104.023 17.628 103.91 18.116C103.874 18.2754 103.911 18.4308 104.023 18.5824C104.138 18.724 104.37 18.877 104.72 19.0414L106.172 19.7054C106.874 20.0243 107.344 20.3996 107.58 20.8314C107.819 21.2532 107.881 21.7131 107.766 22.2111C107.601 22.9282 107.176 23.4544 106.491 23.7897C105.816 24.1273 104.945 24.1736 103.88 23.9286Z" fill="white"/>
<path d="M119.905 29.7322C118.832 29.1812 118.132 28.4309 117.804 27.4812C117.481 26.5225 117.607 25.4841 118.181 24.366C118.564 23.6206 119.036 23.059 119.598 22.6812C120.16 22.3033 120.772 22.1066 121.435 22.091C122.107 22.08 122.779 22.2473 123.452 22.5928C124.143 22.9477 124.656 23.3897 124.994 23.919C125.335 24.4392 125.51 25.0055 125.517 25.6181C125.528 26.2215 125.378 26.8277 125.065 27.4368C124.972 27.6186 124.878 27.789 124.785 27.9479C124.692 28.1069 124.604 28.2453 124.52 28.3632L119.707 25.8908C119.509 26.4554 119.487 26.9442 119.643 27.3573C119.812 27.7659 120.133 28.0916 120.606 28.3344C121.006 28.5398 121.368 28.6283 121.693 28.5999C122.018 28.5714 122.318 28.4558 122.595 28.2532L123.787 29.5893C123.293 30.0135 122.697 30.2356 121.997 30.2554C121.302 30.2661 120.605 30.0917 119.905 29.7322ZM122.731 23.963C121.849 23.51 121.067 23.7232 120.386 24.6025L123.454 26.1784C123.642 25.6777 123.672 25.2392 123.544 24.863C123.429 24.4824 123.158 24.1824 122.731 23.963Z" fill="white"/>
<path d="M131.017 36.5664L136.153 30.8775L137.553 32.1409L136.644 33.2618C137.174 33.0249 137.696 32.9585 138.207 33.0626C138.727 33.1735 139.207 33.4276 139.646 33.8248C140.238 34.359 140.57 34.9751 140.642 35.6733C140.72 36.3639 140.448 37.0543 139.825 37.7446L136.456 41.4766L134.897 40.0693L137.866 36.781C138.304 36.2956 138.507 35.8728 138.474 35.5127C138.455 35.1519 138.298 34.8379 138.002 34.5708C137.79 34.3791 137.533 34.2439 137.233 34.1651C136.946 34.0857 136.636 34.1015 136.302 34.2127C135.975 34.3307 135.64 34.5793 135.298 34.9586L132.576 37.9737L131.017 36.5664Z" fill="white"/>
<path d="M144.991 52.1791C144.651 51.6441 144.481 51.0803 144.48 50.4878C144.485 49.9039 144.657 49.3351 144.995 48.7814C145.348 48.231 145.878 47.7313 146.586 47.2824C147.302 46.8281 147.99 46.5673 148.649 46.5001C149.317 46.4274 149.915 46.5204 150.442 46.779C150.983 47.0408 151.423 47.4392 151.763 47.9742C152.058 48.4402 152.201 48.9127 152.19 49.3916C152.179 49.8704 152.043 50.3139 151.781 50.7218L155.716 48.2257L156.841 49.9991L147.534 55.9027L146.524 54.3105L147.73 53.4364C147.184 53.5289 146.665 53.4647 146.174 53.2437C145.692 53.0173 145.297 52.6624 144.991 52.1791ZM146.678 51.8348C146.968 52.2922 147.378 52.5467 147.907 52.5984C148.444 52.6447 149.041 52.4598 149.697 52.0438C150.318 51.6497 150.71 51.2078 150.871 50.7181C151.047 50.2317 150.992 49.7641 150.707 49.3153C150.401 48.8321 149.987 48.5618 149.467 48.5046C148.961 48.4506 148.38 48.6316 147.724 49.0476C147.068 49.4636 146.652 49.9149 146.477 50.4013C146.31 50.8823 146.377 51.3602 146.678 51.8348Z" fill="white"/>
<path d="M155.723 81.8654C155.643 81.0927 155.708 80.3721 155.917 79.7036C156.127 79.0452 156.461 78.4922 156.918 78.0447L158.262 79.1245C157.921 79.4059 157.654 79.762 157.462 80.1926C157.27 80.6232 157.202 81.118 157.26 81.6772C157.3 82.0736 157.388 82.3831 157.524 82.6054C157.671 82.8369 157.872 82.9397 158.126 82.9136C158.288 82.897 158.42 82.827 158.52 82.7037C158.631 82.5794 158.705 82.3459 158.741 82.0031L158.878 80.6331C158.971 79.7299 159.181 79.0715 159.508 78.6578C159.847 78.2533 160.311 78.0209 160.901 77.9605C161.318 77.9178 161.721 77.9997 162.112 78.2063C162.504 78.4229 162.838 78.7689 163.112 79.2441C163.397 79.7183 163.578 80.3265 163.654 81.0686C163.812 82.6139 163.453 83.7704 162.576 84.5382L161.228 83.4127C161.561 83.1526 161.8 82.8302 161.946 82.4454C162.102 82.0698 162.16 81.6838 162.12 81.2873C162.028 80.3927 161.733 79.9709 161.235 80.0219C161.072 80.0386 160.937 80.1243 160.83 80.2791C160.733 80.4329 160.663 80.702 160.62 81.0865L160.459 82.6747C160.384 83.4426 160.179 84.008 159.847 84.3708C159.524 84.7325 159.109 84.9394 158.601 84.9915C157.869 85.0664 157.234 84.8336 156.695 84.2928C156.158 83.7623 155.834 82.9531 155.723 81.8654Z" fill="white"/>
<path d="M155.382 98.8998C155.558 97.7068 156.043 96.8021 156.836 96.1858C157.64 95.5709 158.663 95.3553 159.907 95.5388C160.736 95.6611 161.42 95.9273 161.958 96.3373C162.497 96.7474 162.88 97.2637 163.109 97.8862C163.336 98.5188 163.394 99.2092 163.283 99.9573C163.17 100.726 162.917 101.355 162.525 101.844C162.142 102.335 161.662 102.683 161.085 102.887C160.517 103.092 159.895 103.145 159.217 103.045C159.015 103.015 158.824 102.982 158.643 102.945C158.463 102.908 158.303 102.869 158.165 102.828L158.955 97.4746C158.357 97.469 157.887 97.6063 157.546 97.8865C157.214 98.1784 157.009 98.5871 156.931 99.1129C156.866 99.5577 156.898 99.9293 157.03 100.228C157.162 100.526 157.368 100.773 157.649 100.97L156.768 102.529C156.207 102.198 155.805 101.705 155.561 101.049C155.327 100.395 155.267 99.6782 155.382 98.8998ZM161.754 99.7161C161.899 98.7354 161.445 98.0642 160.393 97.7024L159.89 101.114C160.424 101.131 160.849 101.018 161.164 100.776C161.487 100.544 161.684 100.191 161.754 99.7161Z" fill="white"/>
<path d="M152.489 111.631L159.529 114.66L158.784 116.392L157.43 115.893C157.825 116.319 158.056 116.791 158.122 117.309C158.185 117.836 158.099 118.372 157.864 118.917C157.549 119.649 157.073 120.161 156.435 120.454C155.807 120.751 155.065 120.716 154.211 120.348L149.593 118.361L150.423 116.432L154.492 118.183C155.093 118.442 155.558 118.497 155.889 118.35C156.224 118.217 156.471 117.967 156.628 117.601C156.741 117.338 156.787 117.051 156.764 116.741C156.747 116.445 156.633 116.156 156.42 115.875C156.203 115.604 155.859 115.367 155.39 115.165L151.659 113.56L152.489 111.631Z" fill="white"/>
<path d="M142.217 129.882C142.615 129.388 143.094 129.046 143.654 128.854C144.209 128.67 144.802 128.65 145.436 128.792C146.07 128.949 146.714 129.289 147.367 129.815C148.028 130.346 148.496 130.914 148.772 131.516C149.056 132.125 149.161 132.72 149.086 133.303C149.012 133.899 148.777 134.445 148.38 134.938C148.034 135.368 147.633 135.655 147.176 135.799C146.719 135.943 146.255 135.957 145.785 135.841L149.415 138.762L148.099 140.398L139.512 133.489L140.694 132.02L141.91 132.881C141.646 132.393 141.54 131.881 141.591 131.345C141.65 130.816 141.859 130.328 142.217 129.882ZM143.087 131.369C142.748 131.791 142.639 132.26 142.76 132.778C142.889 133.302 143.257 133.807 143.862 134.294C144.435 134.755 144.98 134.983 145.495 134.978C146.012 134.988 146.437 134.785 146.77 134.371C147.129 133.925 147.252 133.447 147.138 132.936C147.026 132.439 146.668 131.947 146.063 131.461C145.458 130.974 144.896 130.726 144.379 130.716C143.87 130.713 143.439 130.931 143.087 131.369Z" fill="white"/>
<path d="M99.0039 153C99.0039 157.971 94.9745 162 90.0039 162C85.0333 162 81.0039 157.971 81.0039 153C81.0039 148.029 85.0333 144 90.0039 144C94.9745 144 99.0039 148.029 99.0039 153Z" fill="white"/>
</svg>
