<svg width="1920" height="900" viewBox="0 0 1920 900" fill="none" xmlns="http://www.w3.org/2000/svg">
<path d="M73.6314 975.999C42.3086 953.68 7.32043 936.691 -31 924.699V975.999H73.6314Z" fill="#D9D9D9"/>
<path d="M1950.66 -76.6682H1860.69C1890.02 -53.0165 1920.34 -30.0311 1950.66 -7.3788V-76.6682Z" fill="#D9D9D9"/>
<path d="M587.121 272.446C589.454 301.428 583.789 329.743 579.791 358.392C577.125 377.38 573.459 396.368 569.794 415.356C562.796 452.999 541.137 478.316 500.484 487.976C459.165 497.637 417.512 506.631 374.526 507.964C354.2 508.63 343.87 498.303 343.537 479.315C342.87 447.002 350.535 415.356 357.199 384.042C366.196 341.736 376.526 299.429 387.189 257.456C391.854 239.467 398.185 221.479 408.848 205.489C418.845 190.498 433.507 182.504 452.5 183.17C490.487 184.835 527.142 192.497 563.13 202.491C582.79 208.154 586.122 223.144 587.121 239.467C587.455 250.794 587.121 261.453 587.121 272.446Z" fill="#D9D9D9"/>
<path d="M1060.96 176.173C1058.96 198.825 1055.3 221.477 1048.63 243.13C1042.3 264.117 1027.97 281.106 1012.64 297.096C1007.64 302.426 1000.65 302.759 993.316 301.093C963.993 295.43 937.002 284.437 911.011 270.113C857.695 241.132 804.047 212.483 751.398 182.169C740.068 175.507 728.739 168.844 719.075 159.517C709.745 150.522 709.079 143.527 717.743 133.533C749.732 95.8903 788.385 67.575 839.035 54.9163C853.03 51.252 866.359 52.5845 879.688 57.2482C904.013 65.5762 926.672 77.2355 949.331 88.5617C980.987 104.552 1013.98 118.21 1042.97 138.53C1059.29 150.189 1062.63 157.185 1060.96 176.173Z" fill="#D9D9D9"/>
<path d="M635.437 129.534C629.106 105.216 623.441 80.5654 613.778 57.2469C596.45 13.941 580.789 -29.698 560.795 -72.0045C560.129 -73.6701 559.129 -75.0026 558.463 -76.6682H478.157C454.165 -63.3433 430.506 -49.3522 407.847 -34.3617C392.186 -24.0349 381.189 -10.71 377.857 7.61169C374.858 24.2678 370.859 40.9239 368.194 57.58C366.194 70.9049 368.194 83.8966 376.191 95.889C383.855 107.215 391.852 118.874 399.85 130.201C407.847 141.86 418.843 149.522 433.172 153.186C475.824 164.512 519.476 170.508 563.128 177.837C585.121 181.501 602.448 176.171 618.109 162.847C620.775 160.515 623.774 158.516 626.773 156.85C633.771 152.52 637.103 146.524 636.103 138.529C636.103 135.531 636.103 132.532 635.437 129.534Z" fill="#D9D9D9"/>
<path d="M1368.87 -76.6682C1370.87 -60.0121 1377.53 -44.3553 1389.19 -29.3649C1391.53 -26.3668 1393.53 -23.0355 1395.86 -20.0374C1415.85 6.61233 1434.18 34.5946 1457.84 58.9125C1470.17 71.5711 1479.83 71.9043 1493.82 61.2443C1509.82 48.5857 1525.15 35.9271 1540.48 22.9353C1565.13 2.61486 1579.13 -22.3693 1581.8 -53.3496C1582.46 -61.0114 1583.79 -68.6733 1585.13 -76.6682H1368.87Z" fill="#D9D9D9"/>
<path d="M71.2952 592.575C71.2952 578.584 77.9597 568.59 89.9556 562.927C139.939 539.608 190.588 520.287 248.569 531.947C262.231 534.612 276.559 535.611 290.221 539.275C299.885 541.94 307.882 547.27 311.548 555.598C326.876 591.242 338.205 628.219 337.872 666.861C337.872 677.521 333.54 687.515 328.209 696.842C312.214 726.157 297.886 756.471 275.893 782.454C258.232 803.108 241.571 805.107 218.246 790.449C208.916 784.453 200.252 777.791 192.588 769.796C175.26 752.473 157.933 734.818 140.938 717.496C109.282 685.516 89.6224 646.874 74.2942 606.566C72.2949 602.235 70.962 597.239 71.2952 592.575Z" fill="#D9D9D9"/>
<path d="M1950.66 583.58C1931 593.907 1911.01 604.234 1891.35 614.894C1870.03 626.22 1847.7 636.547 1828.04 651.204C1812.38 662.53 1812.04 667.86 1824.04 682.518C1841.03 703.504 1861.36 721.493 1884.35 736.817C1906.35 751.474 1928.34 766.464 1950.33 781.122V583.58H1950.66Z" fill="#D9D9D9"/>
<path d="M188.929 396.699C185.93 423.016 188.263 450.998 182.598 478.647C179.266 495.303 170.602 507.295 153.608 513.958C124.284 525.617 94.2945 535.944 62.9717 542.606C54.9744 544.272 47.9767 542.606 40.9791 538.609C39.9794 537.943 38.9798 537.609 38.3133 536.943C12.6553 524.951 2.32545 506.629 3.32511 478.647C5.32444 417.352 3.99155 355.725 4.32477 294.097C4.32477 277.108 5.32443 260.119 8.32342 243.463C11.9889 224.142 21.6523 217.812 41.3123 225.141C84.2978 241.131 124.951 261.451 162.605 286.435C182.598 299.427 188.263 319.415 188.596 341.068C189.262 359.389 188.929 377.378 188.929 396.699Z" fill="#D9D9D9"/>
<path d="M1950.67 124.207C1938.34 125.54 1926.34 128.538 1915.01 134.534C1877.03 154.188 1841.7 177.173 1805.38 199.159C1777.06 216.482 1761.06 242.465 1745.74 269.115C1739.74 279.442 1741.07 289.436 1747.74 299.096C1751.73 304.426 1755.4 310.089 1760.06 314.753C1776.73 331.409 1793.39 348.065 1810.38 364.388C1825.71 379.045 1844.37 388.706 1866.03 392.703C1881.36 395.701 1896.69 398.7 1912.01 401.698C1930.67 405.362 1942.67 405.695 1951 400.698V124.207H1950.67Z" fill="#D9D9D9"/>
<path d="M1950.67 429.345C1947.67 428.346 1944.67 427.347 1941.34 426.68C1920.34 421.684 1898.68 418.686 1877.69 414.022C1848.03 407.359 1825.71 417.02 1807.05 437.34C1804.72 440.005 1802.05 442.337 1799.72 445.002C1773.06 474.65 1747.73 505.297 1722.74 536.278C1715.41 545.272 1709.75 554.932 1704.42 565.259C1699.75 574.587 1701.08 583.248 1707.41 591.243C1717.74 603.568 1729.07 614.894 1742.4 624.555C1754.4 633.216 1767.73 637.88 1782.06 636.88C1799.05 636.88 1814.05 632.55 1828.37 627.22C1871.03 611.23 1910.68 590.243 1950.67 568.924V429.345Z" fill="#D9D9D9"/>
<path d="M1143.93 499.966C1142.6 520.287 1135.6 539.608 1129.6 559.262C1120.61 588.577 1110.61 617.559 1097.95 645.874C1093.62 655.201 1088.62 664.196 1081.95 672.524C1066.29 692.178 1048.3 700.173 1023.97 691.512C978.988 675.522 934.67 656.867 901.681 621.556C885.353 604.234 884.354 598.904 898.016 579.25C926.339 538.276 959.661 500.966 991.984 462.99C1000.65 452.663 1009.64 443.003 1020.31 434.675C1033.3 424.015 1047.3 422.682 1062.63 430.011C1084.95 440.671 1106.28 452.663 1126.61 466.654C1138.27 474.982 1144.6 485.642 1143.93 499.966Z" fill="#D9D9D9"/>
<path d="M818.71 611.896C821.043 611.896 823.042 612.229 825.375 611.896C857.697 606.899 879.356 621.556 896.684 645.208C906.347 658.533 905.348 673.19 903.682 687.514C898.017 731.82 891.352 775.792 880.023 819.098C877.024 830.757 872.692 841.75 865.694 852.077C857.364 864.402 845.035 871.065 829.373 871.398C804.049 872.064 778.724 869.732 755.065 862.737C720.743 852.41 701.416 827.759 694.752 795.113C688.421 764.799 691.753 735.151 706.081 706.835C716.078 687.181 723.742 666.861 733.739 646.873C745.402 623.222 765.062 612.229 792.386 612.562C801.049 612.562 809.713 612.562 818.71 612.562C818.71 612.229 818.71 612.229 818.71 611.896Z" fill="#D9D9D9"/>
<path d="M807.047 591.91C801.715 591.577 796.05 591.244 790.719 590.911C772.725 589.245 768.06 584.581 768.726 567.259C769.726 536.945 777.723 507.297 783.055 477.649C786.387 458.994 790.719 440.34 796.05 422.018C801.715 402.031 813.711 386.374 831.705 374.715C861.362 355.394 892.018 338.071 922.674 320.083C950.998 303.426 976.656 315.086 1001.98 326.079C1009.31 329.077 1010.64 337.738 1012.31 344.4C1014.98 354.727 1016.98 365.054 1018.98 375.381C1022.97 394.369 1015.98 411.025 1004.31 426.015C971.658 468.655 937.669 509.962 902.015 550.603C870.359 586.913 858.029 591.577 807.047 591.91Z" fill="#D9D9D9"/>
<path d="M1340.2 584.249C1340.53 578.586 1340.87 569.924 1341.53 560.93C1342.53 547.938 1347.86 536.945 1359.86 530.283C1391.85 512.294 1425.5 496.971 1460.83 485.311C1478.15 479.648 1494.48 485.311 1510.48 490.641C1525.47 495.638 1540.13 501.968 1555.13 507.298C1580.78 516.292 1598.11 534.614 1614.77 553.602C1621.44 561.263 1621.44 569.591 1616.11 578.253C1605.78 594.909 1591.11 608.234 1577.79 622.558C1557.46 644.877 1536.8 666.53 1511.81 684.852C1487.48 702.507 1461.16 705.172 1433.17 692.846C1411.18 683.186 1390.18 671.86 1369.19 659.867C1350.53 649.541 1339.87 634.883 1340.2 614.23C1340.2 605.235 1340.2 596.241 1340.2 584.249Z" fill="#D9D9D9"/>
<path d="M1139.95 267.45C1167.6 269.115 1190.59 270.781 1213.25 272.114C1239.24 273.779 1258.24 288.436 1276.23 304.093C1282.9 309.756 1284.56 318.084 1284.56 326.745C1283.9 356.06 1276.9 384.709 1272.57 413.357C1269.9 430.013 1266.9 447.003 1261.57 463.326C1256.91 477.317 1250.91 482.313 1235.25 480.315C1206.59 476.65 1177.93 472.32 1151.61 458.995C1121.28 443.338 1091.96 426.682 1063.3 408.694C1049.98 400.365 1041.31 389.039 1038.65 374.049C1036.31 362.39 1033.65 350.73 1031.65 339.071C1029.32 325.746 1032.98 314.42 1039.98 302.094C1056.31 273.113 1080.3 262.12 1114.29 267.117C1124.28 268.782 1134.61 267.45 1139.95 267.45Z" fill="#D9D9D9"/>
<path d="M1950.66 794.446C1936.33 785.452 1922.01 776.791 1907.01 768.463C1878.69 752.14 1865.36 759.469 1862.03 790.782C1859.03 821.762 1860.03 852.41 1859.03 884.056C1860.36 914.37 1858.69 945.351 1861.36 975.998H1950.33V794.446H1950.66Z" fill="#D9D9D9"/>
<path d="M1697.42 271.445C1673.09 270.112 1649.77 263.45 1626.11 258.12C1595.45 251.125 1564.8 244.462 1534.47 235.135C1511.81 228.139 1497.15 215.147 1492.15 192.828C1486.82 170.176 1479.49 148.19 1480.82 124.871C1481.49 111.213 1486.16 98.8878 1495.82 88.561C1511.15 72.238 1528.48 57.5806 1547.14 44.5889C1556.13 38.5927 1565.13 38.5927 1574.79 42.5901C1587.46 47.9201 1597.45 55.915 1607.45 64.5762C1649.43 100.887 1690.75 137.53 1729.74 176.838C1758.73 206.153 1759.06 212.816 1736.4 247.127C1727.41 260.452 1717.74 273.111 1697.42 271.445Z" fill="#D9D9D9"/>
<path d="M286.232 513.294C260.574 511.628 242.914 509.296 225.253 504.965C210.258 501.301 203.594 492.307 201.927 475.318C197.929 436.342 201.927 397.367 202.927 358.392C203.26 344.068 203.594 330.076 205.926 315.752C208.925 299.429 216.256 286.437 229.918 275.777C268.238 245.797 311.224 222.145 355.876 201.491C371.87 194.163 378.535 198.16 378.201 214.816C377.535 242.132 370.537 268.449 364.873 295.099C352.21 353.728 341.214 413.024 323.553 470.654C321.554 477.316 318.555 483.979 315.889 490.641C309.225 505.965 297.895 514.626 286.232 513.294Z" fill="#D9D9D9"/>
<path d="M785.73 368.384C773.401 368.717 762.404 364.386 751.408 360.056C712.421 344.732 675.434 326.077 638.446 306.756C618.12 296.096 607.79 280.772 608.456 258.786C608.789 248.46 608.123 238.466 607.457 228.139C604.791 196.159 622.785 183.168 653.774 172.841C673.101 166.512 692.095 173.174 710.089 179.836C774.067 203.821 833.047 237.467 890.028 273.111C917.019 290.1 916.686 300.76 890.694 318.415C868.035 333.739 844.377 347.73 819.718 360.056C809.055 365.385 798.059 369.05 785.73 368.384Z" fill="#D9D9D9"/>
<path d="M1506.48 249.125C1539.8 252.457 1568.46 260.452 1597.12 267.114C1619.77 272.111 1642.1 277.441 1664.09 284.436C1671.42 286.768 1678.42 289.433 1684.42 294.097C1692.42 300.426 1695.75 308.088 1693.42 318.415C1690.08 332.073 1683.09 344.398 1676.09 356.724C1653.43 395.366 1630.44 434.008 1603.45 470.318C1587.45 491.638 1574.12 495.303 1548.13 485.642C1538.8 482.311 1529.47 477.98 1519.81 474.982C1494.82 466.987 1483.49 449.998 1483.49 426.013C1483.15 379.709 1483.15 333.405 1483.82 287.434C1483.82 278.44 1486.49 269.446 1490.15 260.785C1494.15 252.457 1499.82 247.793 1506.48 249.125Z" fill="#D9D9D9"/>
<path d="M1761.07 975.999C1761.4 974.666 1761.74 973.334 1761.74 972.001C1762.74 962.341 1762.4 953.014 1761.07 943.353C1754.41 896.05 1744.08 849.746 1735.08 802.775C1732.08 788.118 1729.08 773.461 1723.75 759.137C1719.42 747.477 1713.42 744.479 1703.42 749.143C1688.09 756.471 1673.1 764.133 1660.77 775.126C1641.11 792.449 1622.45 810.437 1603.79 828.759C1596.46 836.088 1590.79 844.416 1587.46 853.743C1576.47 886.722 1571.8 920.701 1569.8 955.012C1569.13 965.006 1570.8 971.335 1575.13 975.666H1761.07V975.999Z" fill="#D9D9D9"/>
<path d="M1172.26 253.791C1147.6 253.458 1122.94 253.125 1098.28 249.461C1080.96 246.796 1074.63 240.8 1076.63 224.81C1081.62 181.837 1086.62 138.864 1118.61 104.22C1126.28 95.8917 1134.27 88.2298 1145.94 84.8986C1159.93 80.9012 1173.59 76.9037 1187.59 72.9062C1203.25 68.2425 1218.58 71.2406 1233.57 75.5712C1261.9 83.8993 1290.55 91.8942 1317.88 102.554C1339.54 110.882 1342.87 118.544 1330.87 137.532C1314.55 163.515 1292.89 186.501 1273.23 210.486C1266.23 219.147 1257.56 226.475 1249.9 234.804C1237.9 247.795 1222.58 253.791 1204.58 253.791C1193.92 253.791 1183.26 253.791 1172.26 253.791Z" fill="#D9D9D9"/>
<path d="M1788.39 -76.6682H1601.79C1601.79 -75.6688 1601.45 -74.6694 1601.45 -73.6701C1600.45 -37.6929 1607.79 -26.6999 1636.78 -16.04C1659.43 -7.71192 1682.43 -0.0501111 1705.75 6.61233C1729.08 13.6079 1751.74 21.6028 1776.06 24.934C1794.06 27.2659 1800.39 21.9359 1800.05 4.94672C1799.72 -16.3731 1793.39 -36.6935 1791.39 -57.6802C1790.39 -64.3427 1789.72 -70.672 1788.39 -76.6682Z" fill="#D9D9D9"/>
<path d="M583.129 444.336C586.128 415.688 590.793 380.044 599.79 345.066C605.455 323.413 614.785 318.416 637.111 326.411C677.097 340.735 715.418 359.057 751.739 380.377C774.065 393.702 777.73 414.688 774.398 437.007C769.066 472.985 762.402 508.629 753.072 543.94C744.075 577.585 729.413 583.914 698.09 565.259C666.101 546.605 635.445 525.618 607.121 502.299C587.461 486.643 583.129 475.65 583.129 444.336Z" fill="#D9D9D9"/>
<path d="M1467.83 366.053C1467.5 393.369 1468.16 417.687 1463.5 442.005C1460.83 455.996 1452.83 466.656 1440.17 473.651C1411.18 489.308 1381.19 502.633 1349.87 513.959C1336.87 518.623 1325.21 517.624 1313.55 510.628C1307.88 507.297 1301.88 503.632 1295.89 500.301C1284.56 493.639 1279.56 483.978 1280.56 471.986C1282.89 435.676 1291.55 400.365 1296.55 364.387C1301.55 328.077 1321.88 308.423 1360.2 301.427C1384.19 297.097 1408.18 290.434 1432.17 286.437C1452.17 283.106 1462.16 290.101 1465.5 309.089C1469.16 328.743 1466.83 348.731 1467.83 366.053Z" fill="#D9D9D9"/>
<path d="M741.406 975.999C741.406 958.343 741.74 941.021 741.406 923.365C741.073 912.039 740.407 901.046 737.741 890.053C734.409 877.061 724.079 869.733 712.083 865.735C701.753 862.404 696.088 871.398 689.757 877.394C687.425 879.726 684.759 882.391 682.426 885.056C657.102 915.037 632.776 945.351 608.784 975.999H741.406Z" fill="#D9D9D9"/>
<path d="M604.784 732.485C584.125 732.485 563.465 731.485 542.805 730.486C525.478 729.487 508.817 715.496 511.482 697.507C519.146 649.871 526.477 602.234 540.473 555.597C541.472 552.599 542.472 549.934 543.805 546.936C557.134 516.622 576.461 509.293 607.45 524.617C644.104 542.605 677.093 566.257 708.083 592.24C721.078 602.9 724.744 616.891 720.079 631.216C710.749 660.53 698.753 688.846 682.092 715.496C675.094 726.489 664.431 731.152 651.435 732.485C636.107 733.817 620.446 732.485 604.784 732.485Z" fill="#D9D9D9"/>
<path d="M1211.91 -76.6682H1057.63C1057.96 -74.3363 1058.3 -72.0045 1058.63 -69.6726C1061.63 -49.3522 1069.96 -30.3642 1079.96 -12.3756C1092.29 9.94355 1102.28 33.2621 1116.94 54.5819C1120.94 60.5781 1126.27 67.5737 1134.27 67.2405C1156.93 66.2412 1178.26 60.245 1197.25 47.9195C1200.25 45.9207 1203.25 42.5895 1204.58 39.2583C1213.58 17.6054 1220.24 -4.3807 1223.24 -27.3661C1222.58 -31.6967 1222.24 -35.6942 1221.58 -39.6916C1218.91 -52.3503 1215.58 -64.6758 1211.91 -76.6682Z" fill="#D9D9D9"/>
<path d="M341.205 -76.6682H178.26C178.26 -76.0019 177.927 -75.0026 177.927 -74.3363C175.927 -57.6802 171.929 -41.3572 180.592 -25.3674C188.923 -10.3769 197.253 4.94672 205.584 19.9372C213.248 33.5952 225.577 42.2564 241.239 46.2539C268.229 53.5825 295.22 60.245 322.878 64.2424C339.539 66.9074 346.87 62.9099 350.868 47.5863C356.2 28.2653 359.865 8.27794 360.865 -11.7094C361.531 -23.0355 359.532 -34.0286 355.2 -44.6885C351.202 -55.3484 346.203 -66.0083 341.205 -76.6682Z" fill="#D9D9D9"/>
<path d="M1125.62 975.998C1113.62 957.01 1100.96 938.688 1086.63 921.366C1073.3 905.043 1064.3 902.378 1044.31 910.373C1014.99 922.365 986.996 936.356 959.672 952.346C949.008 958.675 941.344 966.337 937.346 975.998H1125.62Z" fill="#D9D9D9"/>
<path d="M1322.21 597.904C1321.55 608.231 1321.21 620.223 1320.55 632.215C1319.21 651.537 1308.55 664.528 1288.22 668.193C1240.24 676.854 1191.59 684.182 1142.94 688.513C1119.28 690.512 1109.95 680.851 1114.95 659.198C1126.61 608.897 1143.61 560.261 1162.6 512.292C1170.93 491.305 1181.26 486.641 1205.25 491.305C1219.91 493.97 1234.24 496.968 1248.9 499.633C1271.56 503.963 1289.89 516.622 1308.55 528.281C1320.88 536.276 1321.55 548.935 1322.21 561.26C1322.54 572.587 1322.21 584.579 1322.21 597.904Z" fill="#D9D9D9"/>
<path d="M1294.22 901.046C1309.55 926.697 1326.55 951.348 1343.54 975.999H1516.48C1514.48 972.334 1512.15 968.67 1509.15 964.673C1489.82 938.689 1468.5 914.371 1447.17 889.72C1435.18 875.729 1421.18 864.07 1401.85 859.406C1374.86 853.077 1347.87 849.412 1319.55 847.414C1315.55 847.747 1310.55 847.747 1306.22 848.413C1286.23 851.744 1278.23 864.736 1285.23 882.725C1287.23 889.054 1290.56 895.05 1294.22 901.046Z" fill="#D9D9D9"/>
<path d="M340.203 975.999C364.528 965.672 388.853 955.345 412.845 943.686C429.506 935.691 432.505 928.029 426.507 912.04C424.175 905.377 418.843 901.713 412.512 898.382C382.189 882.392 350.2 869.067 317.877 856.741C304.548 851.744 290.553 847.081 275.558 848.08C254.232 849.413 238.237 860.406 224.909 875.063C196.918 906.376 174.592 941.354 151.933 975.666H340.203V975.999Z" fill="#D9D9D9"/>
<path d="M1781.06 184.835C1770.39 185.501 1761.4 180.837 1752.73 175.841C1740.4 168.512 1729.41 159.518 1719.08 150.19C1679.42 115.212 1640.1 79.9014 1602.12 43.258C1597.45 38.9274 1593.45 34.2637 1589.12 29.2668C1581.79 20.9388 1580.46 12.2776 1586.79 2.28395C1593.12 -7.70972 1602.12 -8.70908 1612.11 -6.37723C1625.44 -3.71225 1638.77 -0.381033 1652.1 3.61643C1698.75 17.2744 1745.4 31.2656 1791.72 46.5892C1828.71 59.2478 1860.7 80.2345 1892.02 101.554C1904.68 110.215 1904.68 117.877 1892.35 126.872C1864.03 147.525 1833.37 165.514 1801.38 180.837C1795.05 183.835 1788.05 185.168 1781.06 184.835Z" fill="#D9D9D9"/>
<path d="M91.6254 687.848C85.2942 661.531 71.2989 638.546 57.97 615.227C51.9721 604.567 44.6412 604.234 36.9771 613.895C13.6516 642.877 -9.0074 672.524 -25.002 705.837C-27.3346 711.167 -29.3339 716.497 -31 721.826V899.047C-27.6678 902.379 -23.3359 905.044 -17.6712 907.042C-10.0071 910.04 -2.34299 913.039 5.65432 916.037C35.311 927.363 42.6419 924.032 51.9721 895.383C52.3053 894.717 52.3053 894.051 52.6385 893.384C67.3002 845.415 77.2968 796.446 87.6267 747.477C91.2921 727.823 96.2905 708.168 91.6254 687.848Z" fill="#D9D9D9"/>
<path d="M916.015 976C912.683 959.677 906.019 944.353 893.023 930.362C887.025 924.033 882.027 916.704 876.695 910.042C869.698 901.714 860.701 896.051 849.704 894.052C829.045 890.388 808.052 887.39 787.059 886.723C766.066 886.057 760.401 890.721 758.402 910.042C756.403 932.028 755.736 953.681 756.069 975.667H916.015V976Z" fill="#D9D9D9"/>
<path d="M1758.4 874.064C1765.39 908.042 1770.39 942.354 1780.06 975.666H1843.7C1846.03 943.02 1846.37 911.04 1847.03 884.391C1847.03 836.754 1847.37 796.446 1845.03 756.139C1843.03 724.159 1826.04 701.173 1798.38 684.517C1780.06 673.191 1761.06 679.521 1750.07 697.509C1735.07 721.494 1734.4 746.811 1739.4 773.461C1746.07 806.773 1751.73 840.752 1758.4 874.064Z" fill="#D9D9D9"/>
<path d="M1408.85 114.545C1450.51 114.545 1454.5 117.876 1463.5 152.521C1469.5 175.839 1475.5 199.158 1479.83 223.143C1483.49 242.797 1473.17 260.119 1452.51 265.782C1409.85 277.775 1366.2 286.436 1322.55 294.764C1304.56 298.095 1290.23 290.767 1276.56 281.106C1253.57 264.45 1251.91 259.12 1267.9 236.801C1292.56 202.489 1320.55 170.176 1348.21 137.864C1365.2 118.209 1387.53 112.879 1408.85 114.545Z" fill="#D9D9D9"/>
<path d="M229.241 61.5777C255.565 63.5765 280.89 72.2376 306.882 76.2351C347.868 82.8976 368.194 109.547 383.189 141.86C387.854 151.521 385.855 160.515 377.858 167.844C372.859 172.507 367.861 176.838 362.196 180.169C342.536 192.162 321.876 202.821 300.55 212.482C285.555 219.478 270.894 219.811 255.899 212.815C225.576 199.157 199.251 179.836 171.927 162.181C157.932 153.186 143.27 144.525 131.607 132.866C122.277 123.538 122.277 116.543 132.94 108.548C154.266 92.5581 177.592 78.2338 202.917 66.9077C210.914 63.2433 219.911 60.5784 229.241 61.5777Z" fill="#D9D9D9"/>
<path d="M1605.78 503.299C1605.45 496.304 1609.11 489.641 1612.78 482.979C1641.44 431.678 1670.76 381.044 1706.41 333.74C1720.41 315.419 1730.41 314.419 1748.07 329.077C1765.39 343.401 1780.72 359.058 1795.38 375.714C1808.71 391.037 1809.38 403.363 1798.72 420.685C1783.39 445.669 1763.4 467.322 1744.4 489.641C1725.41 511.627 1708.41 534.946 1687.42 555.266C1674.76 567.592 1669.76 568.591 1654.1 559.93C1635.11 549.27 1621.11 533.614 1608.45 516.957C1605.78 513.293 1605.45 508.629 1605.78 503.299Z" fill="#D9D9D9"/>
<path d="M457.171 944.02C464.501 954.68 471.832 965.339 479.163 975.999H597.79C628.113 939.689 656.437 901.713 684.427 863.737C687.76 859.407 689.426 854.077 690.758 848.747C693.757 837.087 682.761 821.431 669.766 821.431C666.767 822.097 661.768 822.763 657.103 824.429C601.122 841.418 547.14 863.404 492.825 884.391C480.829 889.055 468.833 894.385 457.837 901.047C450.839 905.378 447.84 911.041 449.173 919.369C450.173 927.697 452.172 936.358 457.171 944.02Z" fill="#D9D9D9"/>
<path d="M489.156 511.295C518.146 509.962 527.477 518.29 524.811 541.942C519.479 585.581 510.816 628.554 499.486 670.86C498.486 674.858 496.82 678.522 494.821 682.187C488.49 694.845 480.826 699.509 466.164 696.511C439.84 691.181 414.181 683.519 389.523 673.525C371.862 666.53 361.533 653.205 355.868 636.882C348.204 614.896 342.539 592.577 338.54 569.591C334.542 547.938 340.54 538.611 363.532 532.615C397.854 523.62 433.175 518.957 468.163 513.627C476.494 512.627 484.824 511.961 489.156 511.295Z" fill="#D9D9D9"/>
<path d="M1332.21 976C1318.88 956.346 1305.22 936.692 1288.56 919.036C1273.23 902.713 1261.56 902.047 1243.57 915.705C1219.25 934.027 1196.92 955.013 1175.26 976H1332.21Z" fill="#D9D9D9"/>
<path d="M573.796 -76.6669C585.459 -44.354 598.121 -12.3743 612.783 18.9391C616.115 26.2678 619.448 36.9277 628.111 36.5946C637.108 36.5946 640.107 25.9347 642.773 18.2729C654.769 -13.3737 666.765 -45.0203 677.428 -77H573.796V-76.6669Z" fill="#D9D9D9"/>
<path d="M76.2981 953.68C84.2954 960.009 92.6259 966.339 101.29 972.002C103.622 973.667 105.955 975 107.954 975.999H129.613C132.279 974 134.945 971.668 138.277 968.004C139.943 966.339 141.609 964.34 143.276 962.674C167.267 932.693 188.927 901.38 209.253 869.067C226.581 841.751 225.248 825.761 203.255 801.443C186.261 782.455 168.267 764.133 150.273 745.812C144.275 739.482 137.278 733.819 130.28 728.823C119.617 721.494 112.619 723.16 106.621 733.819C102.956 740.149 100.623 746.811 98.6239 753.807C90.2933 782.788 83.6289 811.77 76.9645 841.085C70.6333 868.401 63.6357 895.384 61.9696 923.366C61.6363 936.024 65.635 945.019 76.2981 953.68Z" fill="#D9D9D9"/>
<path d="M1291.56 721.494C1289.89 741.814 1286.23 767.798 1279.56 793.448C1273.56 816.767 1261.57 826.094 1236.24 824.762C1192.92 822.763 1150.94 813.769 1109.62 800.777C1090.96 794.781 1080.96 781.789 1078.29 763.8C1077.3 757.804 1076.3 751.808 1074.96 745.812C1070.96 725.491 1075.63 717.163 1097.29 711.167C1124.28 703.505 1151.94 700.84 1179.59 696.843C1203.92 693.512 1228.58 690.514 1252.9 687.515C1254.9 687.182 1257.23 686.849 1259.23 686.849C1284.56 685.183 1292.89 692.512 1291.56 721.494Z" fill="#D9D9D9"/>
<path d="M1663.43 747.144C1643.1 744.812 1623.44 740.815 1603.45 736.484C1584.12 732.153 1564.8 727.823 1545.47 722.493C1520.81 715.831 1517.81 707.169 1533.48 687.515C1550.47 666.528 1569.8 647.54 1588.46 628.219C1602.45 613.895 1616.78 599.904 1631.11 585.913C1642.11 575.253 1647.77 574.92 1662.1 581.249C1668.76 584.247 1674.76 587.912 1680.09 592.575C1697.09 608.232 1714.08 624.555 1731.08 639.879C1744.4 651.871 1748.07 665.529 1739.41 681.186C1735.41 688.514 1732.07 695.843 1728.74 703.505C1718.08 728.822 1694.42 737.816 1669.43 745.478C1667.76 746.811 1665.76 746.811 1663.43 747.144Z" fill="#D9D9D9"/>
<path d="M758.073 -41.0241C757.407 -51.684 756.74 -64.0095 756.074 -76.6682H684.098C670.103 -36.3604 657.107 3.94735 644.778 44.9214C638.113 66.9074 637.78 88.8935 645.777 111.213C653.775 132.532 667.104 137.862 688.43 127.536C706.091 118.874 719.086 104.55 733.081 92.2247C749.409 77.9004 756.407 60.245 757.74 39.5914C760.072 14.6073 757.407 -10.0438 758.073 -41.0241Z" fill="#D9D9D9"/>
<path d="M1397.51 101.552C1376.52 102.218 1356.19 99.2203 1336.53 93.2241C1309.21 84.896 1282.22 76.2348 1254.9 67.9068C1252.9 67.2405 1250.9 66.5743 1248.9 65.908C1222.57 55.9144 1219.57 50.2513 1226.91 24.934C1227.57 22.6022 1227.9 20.2703 1228.9 17.9385C1234.9 1.94862 1234.9 -17.3725 1251.56 -28.3655C1275.89 -44.3553 1302.21 -56.3477 1332.87 -56.6809C1342.2 -56.6809 1350.2 -53.0165 1355.86 -46.6872C1386.85 -11.7094 1415.84 25.2672 1438.17 65.908C1451.5 89.8928 1444.5 99.5534 1416.17 101.552C1409.84 101.885 1403.51 101.552 1397.51 101.552Z" fill="#D9D9D9"/>
<path d="M766.401 -76.6669C766.734 -45.0203 769.066 -13.7068 771.066 17.9398C771.732 25.9347 773.398 34.2628 775.398 41.9246C778.063 52.5845 783.395 55.2495 794.724 52.2514C805.388 49.5864 815.384 45.5889 825.381 41.5914C845.374 34.2628 858.036 20.9379 865.034 2.28304C875.031 -23.7005 881.029 -50.3502 887.36 -77H766.401V-76.6669Z" fill="#D9D9D9"/>
<path d="M1950.66 0.950556C1917.67 -25.6992 1883.69 -51.6827 1849.36 -77H1802.38C1807.04 -46.0197 1812.38 -15.0393 1819.71 15.6079C1824.04 33.5965 1833.37 48.2539 1849.36 59.2469C1871.36 74.2374 1894.35 87.8954 1918.34 100.221C1927 104.552 1936 106.55 1945.66 105.884C1947.33 105.884 1949 105.551 1950.66 105.551V0.950556Z" fill="#D9D9D9"/>
<path d="M897.027 -76.6682C892.695 -59.0127 888.363 -41.3572 884.698 -23.7018C882.699 -14.7075 879.033 -3.71445 887.697 3.28111C896.028 9.94355 906.024 3.94735 914.688 0.949254C947.01 -10.0438 977.667 -24.0349 1008.32 -38.026C1028.65 -47.3534 1044.98 -59.679 1043.98 -76.6682H897.027Z" fill="#D9D9D9"/>
<path d="M24.319 62.2443C23.3193 44.5888 25.3187 25.934 26.3183 7.27918C27.318 -12.7081 36.9814 -23.0349 57.9743 -25.3668C84.632 -28.3649 111.29 -30.6967 138.281 -30.0305C152.942 -29.6974 164.272 -23.7012 171.269 -12.0419C179.933 1.94923 187.597 16.6066 195.261 31.264C200.26 40.9245 198.927 49.9188 189.93 57.9137C183.599 63.2437 176.934 67.9074 169.937 72.238C133.949 94.5572 98.6273 117.543 57.9743 132.2C55.975 132.866 53.9757 133.866 51.9764 134.532C32.9828 141.194 27.318 137.863 25.9851 118.542C24.6522 100.22 23.6526 81.8985 24.319 62.2443Z" fill="#D9D9D9"/>
<path d="M1107.62 81.2314C1103.95 99.22 1093.29 113.544 1078.96 125.537C1072.96 130.533 1064.3 127.868 1056.97 125.537C1020.65 113.211 987.66 94.5563 953.671 77.567C938.01 69.9052 922.015 61.9103 908.353 51.2504C891.692 38.2586 892.025 28.265 911.019 18.2713C946.007 -0.383529 982.661 -16.3734 1020.98 -28.3658C1041.97 -35.0282 1052.97 -30.3645 1063.63 -12.709C1078.63 11.2757 1091.29 36.593 1102.95 62.2434C1105.62 68.2396 1107.62 74.5689 1107.62 81.2314Z" fill="#D9D9D9"/>
<path d="M1063.97 767.797C1066.3 788.451 1056.3 795.113 1044.64 800.11C1020.98 809.438 996.989 818.432 972.997 827.093C957.669 832.423 942.341 837.753 926.679 841.75C905.353 847.414 896.356 840.085 898.022 819.098C901.688 779.457 909.018 740.481 916.683 701.506C917.349 698.175 918.682 694.844 919.682 691.846C926.346 672.858 934.676 669.193 954.003 676.855C983.327 688.514 1010.98 703.505 1038.64 718.829C1061.3 731.487 1061.3 753.806 1063.97 767.797Z" fill="#D9D9D9"/>
<path d="M1568.46 866.069C1565.47 894.051 1562.13 923.033 1554.47 951.681C1553.8 954.346 1552.8 957.011 1551.47 959.343C1546.14 970.669 1540.14 972.002 1529.48 964.673C1524.81 961.342 1520.48 958.011 1516.48 954.013C1494.16 930.695 1474.83 905.044 1454.5 880.393C1438.51 861.072 1435.51 840.086 1443.84 817.1C1451.84 794.448 1458.83 771.796 1466.17 748.81C1469.83 738.15 1476.16 735.485 1486.82 740.815C1497.49 745.812 1504.82 754.14 1512.48 762.801C1529.81 782.789 1545.14 804.442 1558.8 827.094C1566.13 838.42 1568.46 851.412 1568.46 866.069Z" fill="#D9D9D9"/>
<path d="M584.79 746.476C606.783 745.477 628.442 747.809 650.101 749.141C664.097 749.808 673.427 754.805 674.76 770.461C677.092 797.444 675.426 803.44 649.435 814.433C592.787 838.418 535.14 859.738 476.493 879.059C452.501 887.054 448.169 882.39 452.168 858.739C456.167 836.419 465.164 816.432 480.492 799.11C490.488 787.45 500.485 775.791 510.482 764.132C521.145 752.14 534.807 746.143 551.468 746.476C562.797 746.81 573.794 746.476 584.79 746.476Z" fill="#D9D9D9"/>
<path d="M1081.62 869.731C1083.29 857.406 1084.95 844.747 1086.62 832.422C1088.28 822.428 1093.95 817.764 1105.28 817.764C1130.6 817.764 1154.93 823.761 1179.59 828.424C1201.91 832.422 1224.24 837.752 1246.56 842.082C1268.89 846.413 1271.89 852.742 1262.89 876.394C1260.23 883.056 1254.23 888.053 1248.9 893.05C1224.57 916.035 1199.91 938.355 1173.92 959.674C1170.26 962.673 1165.92 965.338 1161.59 968.003C1152.93 972.999 1144.27 972 1137.93 964.671C1117.61 941.353 1099.28 917.035 1085.62 889.719C1082.29 883.389 1081.62 876.394 1081.62 869.731Z" fill="#D9D9D9"/>
<path d="M192.597 275.442C184.933 275.775 178.269 273.776 171.604 270.778C120.621 249.125 70.6383 225.474 24.6538 195.826C6.65985 184.166 5.66019 175.172 22.6545 161.847C41.6481 146.857 65.3068 138.529 89.2987 133.532C96.2963 132.199 103.96 133.865 110.292 137.196C155.276 160.848 197.596 188.497 237.915 218.811C255.909 232.469 254.91 238.465 236.582 252.123C228.252 258.453 219.255 264.449 210.591 270.445C204.926 274.109 198.928 275.442 192.597 275.442Z" fill="#D9D9D9"/>
<path d="M441.511 838.42C440.844 849.08 439.178 859.407 436.512 869.734C434.18 879.061 428.515 883.392 417.519 881.393C411.187 880.06 404.856 878.728 398.858 876.396C369.202 864.071 339.545 852.411 311.221 837.754C287.229 825.429 283.564 814.769 294.56 790.784C306.889 763.801 322.551 738.484 339.212 713.833C341.544 710.501 344.21 707.17 347.209 704.172C353.54 697.843 360.871 696.843 368.202 702.84C372.201 705.838 375.533 709.502 378.199 713.499C399.525 745.812 419.518 779.125 436.512 813.436C440.511 821.431 441.844 829.759 441.511 838.42Z" fill="#D9D9D9"/>
<path d="M1298.21 783.788C1300.55 754.806 1305.88 721.161 1312.21 687.849C1312.88 684.185 1314.21 680.52 1315.88 677.189C1323.54 659.867 1331.54 656.535 1349.53 665.197C1382.19 680.853 1414.18 697.843 1445.17 715.831C1464.49 726.824 1464.16 741.148 1444.5 752.808C1408.18 774.128 1369.86 792.116 1331.2 809.105C1330.87 809.105 1330.54 809.438 1330.2 809.438C1305.55 818.433 1297.22 813.103 1298.21 783.788Z" fill="#D9D9D9"/>
<path d="M1070.63 832.423C1069.96 842.417 1069.29 850.745 1068.63 859.073C1066.96 875.396 1057.96 887.388 1042.64 895.383C1012.65 911.373 982.655 927.363 950.999 940.355C931.006 948.683 923.675 947.017 910.68 931.027C901.35 919.701 892.686 908.042 884.355 896.049C876.358 884.39 879.024 874.73 892.019 867.068C899.017 862.737 907.014 860.072 914.678 857.074C949.667 844.082 984.988 831.091 1020.98 820.098C1029.31 817.433 1037.64 815.767 1046.3 814.434C1063.29 811.769 1070.63 817.433 1070.63 832.423Z" fill="#D9D9D9"/>
<path d="M389.526 687.847C394.525 688.846 399.523 689.513 404.521 690.845C430.512 698.507 456.504 706.502 482.162 714.164C486.16 715.496 490.492 716.829 494.158 718.827C513.484 729.154 516.15 738.148 503.488 755.138C492.492 770.128 480.829 785.119 467.833 798.777C456.504 810.436 451.172 810.769 441.175 798.11C421.515 773.126 407.52 744.811 391.859 717.828C387.86 711.166 383.861 704.17 382.195 696.508C380.196 690.845 382.195 687.514 389.526 687.847Z" fill="#D9D9D9"/>
<path d="M1529.8 731.822C1556.79 734.487 1585.45 742.815 1614.77 749.144C1624.1 751.143 1632.77 753.808 1641.43 757.805C1649.1 761.137 1651.09 766.8 1646.1 772.463C1629.1 791.451 1612.11 810.439 1589.45 824.097C1582.12 828.427 1575.12 827.095 1569.79 821.432C1548.8 798.446 1530.8 773.462 1515.81 746.479C1510.14 735.153 1513.47 731.156 1529.8 731.822Z" fill="#D9D9D9"/>
<path d="M1398.85 845.414C1375.19 843.082 1349.86 839.751 1325.21 834.088C1322.21 833.422 1318.21 832.755 1317.54 829.424C1316.54 825.76 1320.21 824.094 1322.87 822.429C1336.54 812.768 1351.86 805.772 1367.19 798.444C1387.85 788.45 1407.85 777.457 1429.5 769.129C1434.5 767.13 1440.5 763.799 1444.83 767.463C1449.5 771.128 1446.5 776.791 1445.17 781.788C1441.17 797.111 1436.5 811.769 1430.5 826.426C1424.17 840.75 1416.51 845.414 1398.85 845.414Z" fill="#D9D9D9"/>
</svg>
